<svg width="33" height="48" viewBox="0 0 33 48" fill="none" xmlns="http://www.w3.org/2000/svg">
<path d="M0.844482 3.69941C0.844482 2.03242 2.18166 0.681061 3.83115 0.681061L29.8578 0.681061C31.5073 0.681061 32.8445 2.03242 32.8445 3.69941V44.6627C32.8445 46.3297 31.5073 47.6811 29.8578 47.6811H3.83115C2.18166 47.6811 0.844482 46.3297 0.844482 44.6627L0.844482 3.69941Z" fill="url(#paint0_linear_18_33)"/>
<path d="M14.0711 7.58014C14.0711 6.86572 14.6442 6.28657 15.3511 6.28657H18.7645C19.4714 6.28657 20.0445 6.86572 20.0445 7.58014V14.048C20.0445 14.7625 19.4714 15.3416 18.7645 15.3416L15.3511 15.3416C14.6442 15.3416 14.0711 14.7625 14.0711 14.048V7.58014Z" fill="#454545"/>
<path d="M6.81782 0.681061L27.2978 0.681061C27.2978 1.15734 27.821 2.24055 26.4076 2.30689L7.63428 2.30689C6.5784 2.27763 6.81782 1.15734 6.81782 0.681061Z" fill="#454545"/>
<defs>
<linearGradient id="paint0_linear_18_33" x1="16.8445" y1="0.681061" x2="16.8445" y2="47.6811" gradientUnits="userSpaceOnUse">
<stop stop-color="#BDC1FA"/>
<stop offset="1" stop-color="#F5D9D1"/>
</linearGradient>

</defs>
</svg>
