<svg width="377" height="393" viewBox="0 0 377 393" fill="none" xmlns="http://www.w3.org/2000/svg">
<path d="M139.554 350.533C131.552 348.389 126.804 340.164 128.948 332.162L192.819 93.7915C194.963 85.7895 203.188 81.0408 211.19 83.1849L365.092 124.423C373.094 126.567 377.843 134.792 375.698 142.794L311.827 381.165C309.683 389.167 301.458 393.915 293.456 391.771L139.554 350.533Z" fill="url(#paint0_linear_18_18)"/>
<path d="M152.058 327.924C151.197 331.134 153.296 333.999 157.041 335.003C160.786 336.006 164.036 334.575 164.896 331.364C165.4 329.482 164.884 327.713 163.604 326.362L165.72 326.928L166.69 323.308L154.532 320.05L153.562 323.671L155.677 324.238C153.893 324.769 152.562 326.042 152.058 327.924ZM159.641 325.3C161.392 325.769 162.404 327.437 161.938 329.175C161.473 330.913 159.762 331.851 158.011 331.382C156.26 330.913 155.248 329.245 155.714 327.507C156.179 325.769 157.89 324.831 159.641 325.3Z" fill="white"/>
<path d="M159.702 313.4C160.019 312.217 161.004 311.653 162.633 312.09L169.223 313.855L170.193 310.235L163.749 308.508C162.12 308.072 161.429 306.955 161.785 305.628C162.102 304.445 163.087 303.881 164.716 304.318L171.305 306.083L172.275 302.463L165.491 300.645C161.285 299.518 159.182 301.334 158.542 303.724C158.07 305.486 158.672 307.225 159.848 308.187C157.962 308.613 156.906 309.831 156.544 311.182C156.168 312.582 156.541 314.208 157.825 315.251L155.953 314.749L154.982 318.37L167.14 321.627L168.11 318.007L161.667 316.28C160.038 315.844 159.346 314.727 159.702 313.4Z" fill="white"/>
<path d="M161.5 292.683C160.64 295.894 162.739 298.758 166.484 299.762C170.228 300.765 173.479 299.334 174.339 296.123C174.843 294.241 174.327 292.473 173.047 291.121L175.162 291.688L176.133 288.067L163.975 284.809L163.005 288.43L165.12 288.997C163.336 289.528 162.005 290.801 161.5 292.683ZM169.084 290.059C170.834 290.528 171.847 292.196 171.381 293.934C170.915 295.672 169.205 296.61 167.454 296.141C165.703 295.672 164.691 294.004 165.156 292.266C165.622 290.528 167.333 289.59 169.084 290.059Z" fill="white"/>
<path d="M166.999 273.522L164.309 283.563L167.324 284.371L169.807 275.103L169.856 275.116L170.461 285.212L176.466 286.821L179.157 276.78L176.142 275.972L173.658 285.241L173.61 285.228L173.005 275.132L166.999 273.522Z" fill="white"/>
<path d="M179.495 275.519L180.465 271.899L168.307 268.641L167.337 272.262L179.495 275.519Z" fill="white"/>
<path d="M173.536 261.77C173.886 260.467 174.909 259.758 176.538 260.194L183.128 261.96L184.098 258.339L177.314 256.522C172.864 255.329 170.889 257.646 170.378 259.553C169.977 261.049 170.329 262.747 171.649 263.851L169.729 263.337L168.758 266.957L180.916 270.215L181.886 266.594L175.443 264.868C173.814 264.431 173.168 263.146 173.536 261.77Z" fill="white"/>
<path d="M187.464 243.831L175.793 240.704L174.823 244.325L176.963 244.898C175.271 245.376 173.823 246.695 173.318 248.578C172.452 251.812 174.557 254.653 178.107 255.604C181.657 256.555 184.901 255.148 185.768 251.914C186.272 250.031 185.678 248.164 184.452 246.905L186.64 247.491C188.731 248.051 188.935 249.917 188.553 251.341C188.172 252.765 187.207 254.033 185.902 254.718L187.591 257.654C189.581 256.454 191.089 254.426 191.69 252.181C192.57 248.899 191.671 244.958 187.464 243.831ZM180.707 245.901C182.458 246.37 183.422 248.026 182.956 249.763C182.49 251.501 180.828 252.453 179.077 251.984C177.327 251.515 176.363 249.859 176.829 248.122C177.294 246.384 178.956 245.432 180.707 245.901Z" fill="white"/>
<path d="M165.059 337.151L186.078 258.706L189.498 259.622L168.478 338.067L165.059 337.151Z" fill="white"/>
<path d="M189.287 200.635L191.913 201.339C192.962 201.62 193.88 201.542 194.681 201.118C195.475 200.692 196 199.999 196.253 199.056C196.51 198.098 196.399 197.243 195.925 196.477C195.449 195.719 194.682 195.198 193.633 194.917L189.423 193.788L186.679 204.029L188.263 204.453L189.287 200.635ZM193.179 196.34C193.783 196.502 194.206 196.793 194.451 197.206C194.687 197.625 194.74 198.093 194.6 198.613C194.463 199.126 194.184 199.505 193.763 199.748C193.342 199.991 192.829 200.031 192.233 199.872L189.675 199.186L190.621 195.654L193.179 196.34Z" fill="#868686"/>
<path d="M195.77 204.257C195.585 204.943 195.704 205.557 196.127 206.091C196.543 206.623 197.162 206.999 197.977 207.218C198.95 207.479 199.895 207.303 200.524 206.736L200.274 207.671L201.737 208.064L202.953 203.528C203.189 202.646 203.073 201.87 202.615 201.197C202.156 200.525 201.41 200.05 200.391 199.777C199.78 199.613 199.16 199.601 198.531 199.747C197.901 199.894 197.372 200.116 196.956 200.433L197.648 201.622C198.29 201.187 199.17 200.954 199.992 201.174C200.543 201.322 200.956 201.594 201.216 201.979C201.475 202.372 201.548 202.796 201.424 203.256L201.319 203.649C200.904 203.295 200.331 203.02 199.584 202.82C198.633 202.565 197.807 202.57 197.105 202.835C196.393 203.105 195.951 203.577 195.77 204.257ZM197.293 204.608C197.493 203.861 198.297 203.696 199.316 203.969C200.041 204.164 200.706 204.52 201.012 204.796C200.876 205.301 200.574 205.673 200.104 205.919C199.626 206.163 199.104 206.21 198.523 206.054C198.085 205.937 197.747 205.749 197.519 205.486C197.283 205.22 197.206 204.933 197.293 204.608Z" fill="#868686"/>
<path d="M205.281 209.013L205.546 208.025C205.937 208.947 206.697 209.554 207.821 209.856C208.855 210.133 209.82 210.003 210.706 209.472C211.592 208.941 212.182 208.129 212.479 207.019C212.775 205.918 212.668 204.927 212.167 204.048C211.659 203.168 210.884 202.588 209.843 202.309C208.719 202.008 207.757 202.155 206.957 202.757L208.128 198.388L206.633 197.988L203.786 208.613L205.281 209.013ZM206.269 205.355C206.449 204.684 206.829 204.171 207.405 203.832C207.981 203.493 208.615 203.42 209.302 203.604C209.989 203.788 210.486 204.164 210.793 204.74C211.1 205.315 211.167 205.94 210.985 206.619C210.801 207.306 210.427 207.828 209.869 208.188C209.31 208.556 208.687 208.648 208 208.464C207.313 208.28 206.812 207.887 206.488 207.282C206.158 206.676 206.087 206.034 206.269 205.355Z" fill="#868686"/>
<path d="M215.972 200.49L213.125 211.115L214.619 211.515L217.466 200.89L215.972 200.49Z" fill="#868686"/>
<path d="M223.069 212.777C223.995 212.248 224.606 211.449 224.891 210.385C225.176 209.321 225.047 208.324 224.509 207.404C223.971 206.483 223.147 205.874 222.053 205.581C220.959 205.288 219.941 205.403 219.015 205.932C218.089 206.46 217.479 207.259 217.194 208.323C216.909 209.387 217.038 210.384 217.576 211.305C218.113 212.225 218.937 212.834 220.031 213.127C221.125 213.421 222.143 213.305 223.069 212.777ZM219.812 207.213C220.379 206.879 220.998 206.803 221.677 206.985C222.356 207.167 222.862 207.545 223.186 208.117C223.509 208.689 223.577 209.313 223.397 209.985C223.217 210.657 222.846 211.164 222.28 211.497C221.713 211.831 221.086 211.906 220.407 211.724C219.728 211.542 219.23 211.166 218.906 210.594C218.583 210.022 218.508 209.395 218.688 208.723C218.868 208.052 219.246 207.546 219.812 207.213Z" fill="#868686"/>
<path d="M183.314 216.586L187.434 217.69C190.409 218.543 193.349 216.897 194.073 213.985C194.331 213.019 194.34 212.083 194.097 211.177C193.853 210.278 193.39 209.499 192.709 208.839C192.021 208.178 191.182 207.718 190.178 207.45L186.058 206.345L183.314 216.586ZM187.263 208.189L189.775 208.862C190.847 209.149 191.627 209.739 192.109 210.628C192.59 211.517 192.693 212.491 192.412 213.54C191.902 215.595 189.923 216.852 187.796 216.25L185.283 215.577L187.263 208.189Z" fill="#868686"/>
<path d="M197.794 212.701L196.299 212.301L194.358 219.545L195.852 219.945L197.794 212.701ZM196.856 210.557C196.983 210.777 197.179 210.919 197.451 210.992C197.723 211.064 197.971 211.042 198.191 210.915C198.411 210.788 198.553 210.591 198.626 210.32C198.699 210.048 198.674 209.807 198.547 209.587C198.42 209.367 198.216 209.223 197.944 209.15C197.673 209.077 197.431 209.102 197.211 209.229C196.991 209.356 196.85 209.553 196.777 209.824C196.704 210.096 196.728 210.337 196.856 210.557Z" fill="#868686"/>
<path d="M198.061 218.329C197.877 219.016 197.995 219.63 198.419 220.164C198.834 220.696 199.453 221.072 200.268 221.29C201.242 221.551 202.186 221.376 202.816 220.808L202.565 221.744L204.029 222.136L205.244 217.601C205.481 216.718 205.365 215.943 204.906 215.27C204.448 214.597 203.701 214.122 202.683 213.849C202.071 213.685 201.452 213.673 200.822 213.82C200.192 213.967 199.664 214.189 199.247 214.506L199.94 215.694C200.582 215.26 201.461 215.026 202.284 215.247C202.835 215.394 203.247 215.667 203.508 216.052C203.767 216.445 203.839 216.869 203.716 217.329L203.61 217.721C203.196 217.368 202.622 217.093 201.875 216.892C200.924 216.638 200.098 216.643 199.396 216.908C198.685 217.178 198.243 217.65 198.061 218.329ZM199.584 218.681C199.785 217.934 200.589 217.769 201.608 218.042C202.332 218.236 202.997 218.592 203.303 218.868C203.168 219.374 202.866 219.746 202.395 219.992C201.918 220.236 201.396 220.282 200.815 220.127C200.377 220.009 200.039 219.822 199.81 219.558C199.574 219.293 199.497 219.005 199.584 218.681Z" fill="#868686"/>
<path d="M205.928 221.011C206.068 221.607 206.381 222.128 206.853 222.57C207.323 223.019 207.909 223.338 208.611 223.526C209.403 223.738 210.137 223.716 210.802 223.466C211.468 223.216 211.889 222.762 212.061 222.121C212.241 221.449 212.138 220.896 211.75 220.412C211.355 219.926 210.864 219.584 210.068 219.144C209.595 218.888 209.405 218.781 209.134 218.587C208.738 218.311 208.672 218.107 208.725 217.757C208.848 217.297 209.407 217.115 210.131 217.309C210.908 217.517 211.446 218.017 211.73 218.797L212.964 218.206C212.815 217.705 212.533 217.249 212.104 216.827C211.673 216.412 211.138 216.115 210.497 215.943C209.735 215.739 209.048 215.765 208.428 216.028C207.808 216.29 207.412 216.742 207.24 217.384C207.054 218.078 207.165 218.658 207.587 219.135C208.002 219.61 208.493 219.952 209.295 220.369C209.834 220.651 210.192 220.884 210.379 221.064C210.563 221.25 210.618 221.467 210.551 221.716C210.422 222.199 209.771 222.365 208.979 222.152C208.096 221.916 207.5 221.271 207.278 220.411L205.928 221.011Z" fill="#868686"/>
<path d="M184.032 342.408C185.111 342.697 186.098 342.573 187.007 342.049C187.916 341.524 188.521 340.715 188.815 339.621C188.992 338.957 189.004 338.281 188.839 337.598C188.674 336.914 188.345 336.333 187.851 335.853L186.756 336.74C187.439 337.481 187.66 338.317 187.411 339.245C187.245 339.864 186.917 340.334 186.434 340.657C185.951 340.981 185.43 341.084 184.869 340.974L186.375 335.352C186.182 335.26 185.954 335.175 185.697 335.106C183.783 334.552 181.787 335.571 181.254 337.652C180.961 338.746 181.077 339.732 181.606 340.626C182.135 341.519 182.945 342.117 184.032 342.408ZM183.762 340.637C183.275 340.402 182.925 340.049 182.706 339.57C182.486 339.09 182.453 338.58 182.601 338.029C182.74 337.508 183.02 337.098 183.446 336.808C183.871 336.517 184.351 336.419 184.868 336.509L183.762 340.637Z" fill="#868686"/>
<path d="M190.151 334.03L187.961 331.365L191.19 330.151L191.651 328.431L187.222 330.172L184.391 326.55L183.93 328.271L185.977 330.833L182.923 332.029L182.462 333.749L186.724 332.028L189.69 335.751L190.151 334.03Z" fill="#868686"/>
<path d="M192.915 324.317C193.107 323.6 193.11 322.897 192.913 322.213C192.716 321.53 192.364 320.942 191.843 320.439L190.75 321.351C191.482 322.089 191.762 323.005 191.512 323.941C191.332 324.612 190.958 325.103 190.378 325.425C189.806 325.748 189.181 325.816 188.51 325.636C187.838 325.456 187.331 325.085 186.997 324.519C186.671 323.954 186.597 323.328 186.781 322.641C187.021 321.743 187.762 321.06 188.729 320.833L188.253 319.469C186.824 319.822 185.765 320.816 185.385 322.235C184.766 324.366 186.02 326.627 188.105 327.145C189.169 327.43 190.159 327.299 191.087 326.763C192.015 326.227 192.622 325.411 192.915 324.317Z" fill="#868686"/>
<path d="M183.432 316.603L194.057 319.451L194.458 317.956L183.833 315.109L183.432 316.603Z" fill="#868686"/>
<path d="M192.16 315.153C193.065 315.395 193.861 315.325 194.546 314.943C195.236 314.569 195.708 313.895 195.967 312.929C196.134 312.303 196.128 311.695 195.983 311.268C195.844 310.85 195.69 310.582 195.509 310.38L196.422 310.625L196.825 309.123L189.58 307.182L189.18 308.676L193.262 309.77C193.843 309.926 194.253 310.238 194.49 310.714C194.726 311.19 194.768 311.727 194.611 312.315C194.313 313.425 193.443 313.895 192.243 313.574L188.161 312.48L187.76 313.974L192.16 315.153Z" fill="#868686"/>
<path d="M195.726 307.126C196.321 306.986 196.842 306.673 197.284 306.201C197.734 305.731 198.052 305.145 198.24 304.443C198.453 303.651 198.431 302.917 198.181 302.252C197.93 301.586 197.477 301.165 196.835 300.993C196.164 300.813 195.611 300.916 195.127 301.304C194.64 301.699 194.299 302.19 193.859 302.986C193.603 303.459 193.495 303.649 193.301 303.921C193.025 304.316 192.821 304.382 192.472 304.329C192.011 304.206 191.829 303.648 192.024 302.923C192.232 302.146 192.732 301.608 193.512 301.324L192.92 300.09C192.419 300.239 191.964 300.521 191.541 300.95C191.127 301.381 190.83 301.916 190.658 302.557C190.453 303.319 190.48 304.006 190.742 304.626C191.005 305.246 191.457 305.642 192.098 305.814C192.792 306 193.372 305.889 193.849 305.467C194.324 305.052 194.666 304.561 195.083 303.759C195.365 303.22 195.599 302.862 195.778 302.675C195.965 302.491 196.182 302.436 196.431 302.503C196.914 302.632 197.079 303.283 196.867 304.075C196.63 304.958 195.986 305.554 195.125 305.776L195.726 307.126Z" fill="#868686"/>
<path d="M192.46 296.436L192.059 297.93L199.304 299.871L199.704 298.377L192.46 296.436ZM190.316 297.374C190.536 297.247 190.677 297.05 190.75 296.779C190.823 296.507 190.801 296.258 190.674 296.038C190.547 295.818 190.35 295.676 190.078 295.604C189.807 295.531 189.566 295.555 189.345 295.682C189.125 295.809 188.982 296.013 188.909 296.285C188.836 296.557 188.86 296.798 188.988 297.018C189.115 297.238 189.311 297.38 189.583 297.453C189.855 297.525 190.096 297.501 190.316 297.374Z" fill="#868686"/>
<path d="M201.274 292.517L194.794 287.724L194.363 289.331L199.572 293.015L193.219 293.602L192.788 295.209L200.797 294.298L201.274 292.517Z" fill="#868686"/>
<path d="M198.562 288.179C199.642 288.468 200.629 288.345 201.538 287.82C202.447 287.295 203.052 286.486 203.345 285.392C203.523 284.728 203.534 284.052 203.37 283.369C203.205 282.686 202.875 282.104 202.381 281.624L201.286 282.511C201.969 283.252 202.19 284.088 201.941 285.016C201.776 285.635 201.448 286.105 200.965 286.429C200.482 286.752 199.961 286.855 199.4 286.745L200.906 281.123C200.712 281.031 200.484 280.946 200.228 280.877C198.314 280.324 196.318 281.342 195.785 283.423C195.491 284.517 195.608 285.503 196.136 286.397C196.665 287.291 197.476 287.888 198.562 288.179ZM198.293 286.408C197.806 286.173 197.456 285.82 197.236 285.341C197.017 284.861 196.984 284.351 197.131 283.8C197.271 283.279 197.551 282.869 197.976 282.579C198.402 282.288 198.881 282.19 199.399 282.28L198.293 286.408Z" fill="#868686"/>
<path d="M263.062 126.871C263.777 124.204 266.519 122.621 269.186 123.336L293.15 129.757C295.818 130.472 297.401 133.214 296.686 135.881L286.529 173.787C285.814 176.454 283.073 178.037 280.405 177.322L256.441 170.901C253.774 170.186 252.191 167.445 252.905 164.777L263.062 126.871Z" fill="#444444"/>
<path d="M288.897 370.029L289.093 367.023L282.736 365.32L280.965 367.882L275.867 366.527C279.861 361.326 283.859 356.128 287.862 350.934C288.542 350.054 289.413 349.746 290.496 350.042C291.324 350.272 292.677 350.634 294.557 351.133L293.395 371.226L288.897 370.029ZM285.214 361.795L289.311 362.892L289.697 355.33L285.214 361.795ZM255.663 340.706L260.785 342.083L247.761 359.009L242.576 357.615C242.62 352.234 242.682 346.853 242.76 341.473C242.777 340.401 242.464 339.564 241.59 338.974C240.295 338.114 238.988 337.273 237.67 336.45L237.809 335.93L245.994 338.123C247.41 338.502 248.053 339.411 247.941 340.893C247.83 342.377 247.539 346.154 247.072 352.224L255.663 340.706ZM267.824 343.97L258.671 361.927L253.797 360.616L262.945 342.657L267.824 343.97ZM277.806 346.266C279.265 346.657 280.981 347.606 281.925 348.308L280.013 352.028C279.16 351.386 277.727 350.445 276.399 350.108C274.469 349.627 273.064 350.117 272.856 350.893C272.517 352.156 274.41 353.346 276.164 355.295C278.168 357.517 278.108 359.015 277.666 360.542C276.78 363.718 273.258 366.143 267.604 364.628C265.035 363.899 264.163 363.431 262.259 362.119L264.254 358.236C266.154 359.71 266.985 360.24 268.816 360.731C270.492 361.18 272.113 360.886 272.443 359.705C272.679 358.865 272.275 358.309 270.673 356.765C269.071 355.218 266.817 353.068 267.629 350.181C268.666 346.484 272.834 344.934 277.808 346.267L277.806 346.266Z" fill="white"/>
<path d="M235.304 92.6931C234.875 94.2935 235.825 95.9385 237.425 96.3673L334.961 122.502C336.561 122.931 338.206 121.981 338.635 120.381L339.396 117.538L236.065 89.8503L235.304 92.6931Z" fill="url(#paint1_linear_18_18)"/>
<path d="M69.7159 304.302C61.6145 306.033 53.6435 300.869 51.9121 292.768L0.334371 51.4388C-1.39707 43.3375 3.76674 35.3664 11.868 33.635L167.68 0.334371C175.781 -1.39707 183.752 3.76673 185.484 11.868L237.061 253.197C238.793 261.299 233.629 269.27 225.528 271.001L69.7159 304.302Z" fill="url(#paint2_linear_18_18)"/>
<path d="M70.563 278.48C71.2577 281.73 74.4303 283.326 78.2214 282.516C82.0124 281.705 84.2555 278.952 83.5609 275.702C83.1535 273.796 81.889 272.456 80.1345 271.835L82.2761 271.377L81.4927 267.711L69.1842 270.342L69.9676 274.007L72.1093 273.55C70.7621 274.834 70.1557 276.574 70.563 278.48ZM76.1219 272.692C77.8943 272.313 79.5549 273.338 79.9309 275.098C80.3069 276.857 79.2104 278.471 77.438 278.85C75.6656 279.229 74.005 278.204 73.6289 276.445C73.2529 274.685 74.3494 273.071 76.1219 272.692Z" fill="black"/>
<path d="M70.7621 262.067C70.5062 260.87 71.1269 259.92 72.7762 259.567L79.4474 258.141L78.664 254.476L72.1405 255.87C70.4912 256.223 69.3677 255.543 69.0805 254.199C68.8245 253.001 69.4452 252.051 71.0945 251.699L77.7657 250.273L76.9823 246.607L70.1142 248.075C65.8554 248.985 64.8096 251.56 65.3267 253.979C65.7079 255.763 67.0358 257.038 68.5203 257.359C67.0344 258.597 66.648 260.161 66.9405 261.53C67.2434 262.947 68.3147 264.226 69.9327 264.57L68.0372 264.975L68.8206 268.641L81.1291 266.01L80.3457 262.344L73.8222 263.739C72.1729 264.091 71.0494 263.411 70.7621 262.067Z" fill="black"/>
<path d="M62.9378 242.801C63.6324 246.051 66.8051 247.648 70.5961 246.837C74.3871 246.027 76.6302 243.274 75.9356 240.023C75.5282 238.117 74.2637 236.778 72.5092 236.156L74.6509 235.699L73.8675 232.033L61.5589 234.664L62.3423 238.329L64.484 237.871C63.1368 239.156 62.5304 240.895 62.9378 242.801ZM68.4966 237.014C70.269 236.635 71.9296 237.66 72.3056 239.419C72.6817 241.179 71.5851 242.793 69.8127 243.172C68.0403 243.551 66.3797 242.526 66.0037 240.766C65.6276 239.007 66.7242 237.393 68.4966 237.014Z" fill="black"/>
<path d="M59.1167 223.237L61.2893 233.402L64.3418 232.75L62.3363 223.366L62.3856 223.356L67.5174 232.071L73.5979 230.772L71.4252 220.606L68.3727 221.258L70.3782 230.642L70.329 230.653L65.1971 221.937L59.1167 223.237Z" fill="black"/>
<path d="M71.1524 219.33L70.369 215.664L58.0605 218.295L58.8439 221.96L71.1524 219.33Z" fill="black"/>
<path d="M59.5907 209.797C59.3087 208.477 59.898 207.38 61.5473 207.028L68.2185 205.602L67.4351 201.937L60.567 203.404C56.062 204.367 55.3565 207.329 55.769 209.259C56.0928 210.774 57.1798 212.126 58.8575 212.509L56.9127 212.924L57.6961 216.59L70.0047 213.959L69.2213 210.294L62.6978 211.688C61.0484 212.041 59.8884 211.19 59.5907 209.797Z" fill="black"/>
<path d="M63.8318 187.485L52.0156 190.011L52.799 193.676L54.9653 193.213C53.6763 194.409 52.987 196.242 53.3944 198.148C54.0942 201.423 57.2617 202.995 60.8558 202.227C64.4499 201.458 66.6982 198.729 65.9984 195.455C65.591 193.549 64.2124 192.157 62.5473 191.593L64.7629 191.119C66.8799 190.667 67.9102 192.235 68.2183 193.677C68.5265 195.119 68.2438 196.687 67.3941 197.891L70.2341 199.737C71.4597 197.763 71.8796 195.271 71.3939 192.998C70.6836 189.675 68.0905 186.575 63.8318 187.485ZM58.7563 192.403C60.5287 192.024 62.1401 193.06 62.5161 194.819C62.8921 196.579 61.8448 198.182 60.0724 198.561C58.3 198.94 56.6886 197.904 56.3126 196.145C55.9366 194.386 56.9839 192.782 58.7563 192.403Z" fill="black"/>
<path d="M86.3389 280.781L69.3653 201.362L72.827 200.622L89.8006 280.041L86.3389 280.781Z" fill="black"/>
<path d="M45.8008 148.19L48.4596 147.622C49.5215 147.395 50.3042 146.908 50.8246 146.166C51.3374 145.425 51.4901 144.569 51.286 143.614C51.0786 142.644 50.5912 141.933 49.8204 141.467C49.0513 141.008 48.132 140.893 47.07 141.12L42.8069 142.031L45.0227 152.399L46.6271 152.056L45.8008 148.19ZM47.3131 142.594C47.9243 142.463 48.4339 142.53 48.8403 142.787C49.2407 143.053 49.5002 143.445 49.6128 143.972C49.7239 144.492 49.6472 144.955 49.3829 145.363C49.1186 145.771 48.6808 146.041 48.0773 146.17L45.4873 146.723L44.7232 143.148L47.3131 142.594Z" fill="black"/>
<path d="M53.2217 148.465C53.3703 149.161 53.7552 149.654 54.3749 149.937C54.987 150.221 55.7094 150.274 56.5345 150.098C57.5201 149.888 58.2816 149.301 58.5837 148.51L58.7862 149.457L60.2684 149.14L59.287 144.549C59.096 143.655 58.6402 143.017 57.9256 142.627C57.211 142.236 56.3304 142.153 55.299 142.373C54.6801 142.506 54.1229 142.776 53.6288 143.194C53.1348 143.611 52.7652 144.049 52.5385 144.521L53.6959 145.264C54.0701 144.585 54.747 143.977 55.5798 143.799C56.1375 143.68 56.6285 143.735 57.036 143.959C57.4451 144.191 57.7025 144.536 57.8021 145.002L57.887 145.399C57.3567 145.273 56.721 145.289 55.9646 145.451C55.002 145.656 54.2684 146.037 53.764 146.592C53.2535 147.156 53.0747 147.778 53.2217 148.465ZM54.7382 148.085C54.5766 147.329 55.218 146.816 56.2494 146.596C56.9828 146.439 57.7369 146.454 58.1352 146.56C58.2446 147.072 58.145 147.541 57.8381 147.974C57.5236 148.409 57.0798 148.687 56.4916 148.813C56.0484 148.908 55.6621 148.895 55.3386 148.764C55.0075 148.635 54.8085 148.414 54.7382 148.085Z" fill="black"/>
<path d="M63.8555 148.374L63.6416 147.373C64.41 148.016 65.3627 148.211 66.501 147.968C67.5477 147.744 68.3479 147.19 68.8957 146.314C69.4434 145.438 69.5989 144.446 69.3589 143.323C69.1205 142.207 68.5747 141.373 67.7293 140.819C66.8762 140.266 65.9225 140.103 64.8682 140.328C63.7298 140.571 62.9405 141.14 62.5019 142.04L61.5564 137.617L60.0437 137.94L62.3428 148.697L63.8555 148.374ZM63.0712 144.667C62.9259 143.987 63.031 143.357 63.3898 142.793C63.7486 142.229 64.2802 141.876 64.9755 141.727C65.6707 141.579 66.285 141.687 66.8201 142.06C67.3552 142.433 67.6992 142.959 67.8462 143.646C67.9948 144.341 67.8989 144.977 67.5663 145.551C67.2353 146.133 66.7222 146.499 66.027 146.647C65.3318 146.796 64.7065 146.674 64.1436 146.283C63.5731 145.894 63.2181 145.354 63.0712 144.667Z" fill="black"/>
<path d="M69.4983 135.919L71.7974 146.676L73.3101 146.353L71.011 135.596L69.4983 135.919Z" fill="black"/>
<path d="M81.4086 143.632C81.9929 142.74 82.173 141.751 81.9427 140.673C81.7125 139.596 81.1438 138.767 80.246 138.192C79.3482 137.617 78.3377 137.449 77.2299 137.686C76.1221 137.923 75.2684 138.489 74.6841 139.381C74.0998 140.272 73.9197 141.262 74.15 142.339C74.3802 143.416 74.9489 144.245 75.8467 144.82C76.7445 145.395 77.755 145.563 78.8628 145.326C79.9706 145.089 80.8243 144.523 81.4086 143.632ZM75.9769 140.159C76.3297 139.604 76.846 139.254 77.5336 139.107C78.2212 138.96 78.8432 139.067 79.3919 139.429C79.9407 139.791 80.2847 140.317 80.43 140.997C80.5753 141.677 80.4762 142.297 80.1235 142.852C79.7707 143.406 79.2467 143.758 78.5591 143.905C77.8715 144.052 77.2571 143.944 76.7084 143.582C76.1597 143.22 75.808 142.696 75.6627 142.016C75.5174 141.336 75.6241 140.714 75.9769 140.159Z" fill="black"/>
<path d="M87.9678 143.22L92.1392 142.329C95.1761 141.736 97.0453 138.932 96.3649 136.009C96.1559 135.031 95.7372 134.194 95.109 133.497C94.4825 132.809 93.7161 132.325 92.8099 132.048C91.8961 131.771 90.9396 131.744 89.9235 131.961L85.7521 132.853L87.9678 143.22ZM87.6634 133.946L90.2075 133.403C91.2924 133.171 92.2554 133.34 93.0888 133.913C93.9223 134.486 94.4571 135.306 94.6841 136.368C95.1648 138.431 93.9747 140.451 91.8061 140.882L89.262 141.426L87.6634 133.946Z" fill="black"/>
<path d="M99.0942 133.173L97.5815 133.496L99.149 140.831L100.662 140.507L99.0942 133.173ZM97.2835 131.691C97.4967 131.829 97.7363 131.865 98.0113 131.807C98.2863 131.748 98.4976 131.615 98.6357 131.402C98.7739 131.188 98.8106 130.949 98.7518 130.674C98.693 130.399 98.5616 130.195 98.3484 130.057C98.1351 129.919 97.8879 129.884 97.6129 129.943C97.3379 130.001 97.1343 130.133 96.9961 130.346C96.8579 130.559 96.8212 130.799 96.88 131.074C96.9388 131.349 97.0702 131.552 97.2835 131.691Z" fill="black"/>
<path d="M101.893 138.063C102.042 138.758 102.427 139.251 103.046 139.534C103.658 139.819 104.381 139.872 105.206 139.696C106.192 139.485 106.953 138.899 107.255 138.108L107.458 139.055L108.94 138.738L107.958 134.147C107.767 133.253 107.312 132.615 106.597 132.225C105.882 131.834 105.002 131.751 103.97 131.971C103.352 132.103 102.794 132.374 102.3 132.791C101.806 133.209 101.437 133.647 101.21 134.119L102.367 134.862C102.742 134.183 103.418 133.575 104.251 133.397C104.809 133.278 105.3 133.333 105.707 133.557C106.117 133.789 106.374 134.134 106.474 134.6L106.558 134.997C106.028 134.871 105.392 134.887 104.636 135.048C103.673 135.254 102.94 135.635 102.435 136.19C101.925 136.754 101.746 137.376 101.893 138.063ZM103.41 137.683C103.248 136.927 103.889 136.414 104.921 136.194C105.654 136.037 106.408 136.052 106.807 136.158C106.916 136.67 106.816 137.139 106.51 137.572C106.195 138.007 105.751 138.285 105.163 138.411C104.72 138.506 104.334 138.492 104.01 138.362C103.679 138.233 103.48 138.012 103.41 137.683Z" fill="black"/>
<path d="M110.119 136.872C110.514 137.339 111.03 137.66 111.652 137.839C112.275 138.025 112.942 138.043 113.652 137.891C114.454 137.719 115.098 137.366 115.577 136.84C116.055 136.315 116.224 135.719 116.085 135.07C115.94 134.39 115.597 133.944 115.031 133.689C114.458 133.437 113.865 133.355 112.956 133.326C112.418 133.313 112.2 133.304 111.87 133.255C111.393 133.189 111.241 133.038 111.129 132.702C111.029 132.236 111.444 131.82 112.177 131.663C112.964 131.495 113.67 131.696 114.278 132.261L115.108 131.172C114.748 130.794 114.289 130.517 113.715 130.336C113.143 130.163 112.531 130.141 111.882 130.28C111.11 130.445 110.511 130.781 110.078 131.297C109.645 131.813 109.498 132.396 109.637 133.045C109.787 133.748 110.15 134.213 110.743 134.446C111.328 134.681 111.921 134.762 112.825 134.768C113.433 134.774 113.858 134.819 114.106 134.894C114.355 134.976 114.503 135.144 114.557 135.397C114.662 135.886 114.157 136.329 113.355 136.5C112.461 136.691 111.637 136.388 111.048 135.723L110.119 136.872Z" fill="black"/>
<path d="M77.9368 48.9368C77.3597 46.2364 79.081 43.5794 81.7814 43.0022L106.043 37.8169C108.744 37.2398 111.401 38.9611 111.978 41.6615L120.18 80.0378C120.757 82.7382 119.036 85.3952 116.335 85.9724L92.0733 91.1577C89.3729 91.7348 86.7159 90.0136 86.1387 87.3131L77.9368 48.9368Z" fill="#8E858B"/>
<path d="M211.576 253.714L210.382 250.948L203.946 252.324L203.535 255.411L198.379 256.524C199.569 250.075 200.764 243.628 201.966 237.181C202.171 236.088 202.807 235.417 203.906 235.188C204.747 235.016 206.117 234.723 208.018 234.312L216.126 252.733L211.576 253.714ZM204.55 248.057L208.697 247.171L205.6 240.26L204.55 248.057ZM168.639 242.723L173.827 241.619L169.93 262.617L164.679 263.734C162.27 258.923 159.876 254.103 157.498 249.276C157.025 248.314 156.366 247.711 155.319 247.583C153.775 247.407 152.228 247.252 150.68 247.119L150.567 246.593L158.854 244.822C160.287 244.516 161.273 245.032 161.847 246.403C162.424 247.775 163.883 251.271 166.23 256.889L168.639 242.723ZM180.954 240.096L180.973 260.252L176.036 261.301L176.012 241.147L180.954 240.096ZM190.887 237.6C192.364 237.284 194.324 237.349 195.485 237.544L195.474 241.727C194.423 241.543 192.718 241.357 191.383 241.661C189.444 242.11 188.416 243.187 188.584 243.972C188.858 245.251 191.084 245.449 193.533 246.387C196.328 247.454 196.957 248.815 197.258 250.375C197.914 253.608 195.88 257.369 190.156 258.592C187.537 259.112 186.548 259.093 184.256 258.79L184.265 254.425C186.628 254.873 187.609 254.967 189.463 254.571C191.16 254.208 192.47 253.209 192.226 252.007C192.054 251.152 191.441 250.84 189.312 250.194C187.181 249.546 184.197 248.656 183.606 245.716C182.847 241.952 185.854 238.675 190.89 237.599L190.887 237.6Z" fill="black"/>
<path d="M37.6672 31.1307C38.0135 32.751 39.6077 33.7837 41.228 33.4374L139.974 12.3331C141.594 11.9868 142.627 10.3926 142.281 8.77236L141.666 5.89424L37.0521 28.2526L37.6672 31.1307Z" fill="#0F0F0F" fill-opacity="0.5"/>
<defs>
<linearGradient id="paint0_linear_18_18" x1="376.213" y1="25.5074" x2="-70.1239" y2="213.341" gradientUnits="userSpaceOnUse">
<stop stop-color="#282828"/>
<stop offset="1" stop-color="#121212"/>
</linearGradient>
<linearGradient id="paint1_linear_18_18" x1="356.983" y1="-1116.34" x2="4.21849" y2="-1110.22" gradientUnits="userSpaceOnUse">
<stop stop-color="#F5D9D1"/>
<stop offset="1" stop-color="#BDC1FA"/>
</linearGradient>
<linearGradient id="paint2_linear_18_18" x1="376.213" y1="25.5074" x2="-70.1239" y2="213.341" gradientUnits="userSpaceOnUse">
<stop stop-color="#F5D9D1"/>
<stop offset="1" stop-color="#BDC1FA"/>
</linearGradient>
</defs>
</svg>
