<svg width="338" height="378" viewBox="0 0 338 378" fill="none" xmlns="http://www.w3.org/2000/svg">
<rect x="115" y="352" width="326" height="223" rx="15" transform="rotate(-90 115 352)" fill="url(#paint0_linear_60_37)"/>
<g filter="url(#filter0_d_60_37)">
<path d="M140 322.466C140 326.381 143.261 329 147.827 329C152.394 329 155.655 326.381 155.655 322.466C155.655 320.17 154.528 318.316 152.66 317.168L155.24 317.168L155.24 312.753L140.415 312.753L140.415 317.168L142.995 317.168C141.127 318.316 140 320.17 140 322.466ZM147.827 317.168C149.962 317.168 151.623 318.758 151.623 320.877C151.623 322.996 149.962 324.585 147.827 324.585C145.693 324.585 144.032 322.996 144.032 320.877C144.032 318.758 145.693 317.168 147.827 317.168Z" fill="black"/>
<path d="M144.27 303.611C144.27 302.169 145.218 301.227 147.205 301.227L155.24 301.227L155.24 296.812L147.383 296.812C145.396 296.812 144.27 295.753 144.27 294.134C144.27 292.692 145.218 291.75 147.205 291.75L155.24 291.75L155.24 287.335L146.968 287.335C141.838 287.335 140 290.043 140 292.957C140 295.105 141.216 296.901 142.846 297.636C140.83 298.696 140 300.403 140 302.051C140 303.758 140.919 305.495 142.698 306.289L140.415 306.289L140.415 310.704L155.24 310.704L155.24 306.289L147.383 306.289C145.396 306.289 144.27 305.23 144.27 303.611Z" fill="black"/>
<path d="M140 279.494C140 283.409 143.261 286.028 147.827 286.028C152.394 286.028 155.655 283.409 155.655 279.494C155.655 277.198 154.528 275.344 152.66 274.196L155.24 274.196L155.24 269.781L140.415 269.781L140.415 274.196L142.995 274.196C141.127 275.344 140 277.198 140 279.494ZM147.827 274.196C149.962 274.196 151.623 275.786 151.623 277.905C151.623 280.024 149.962 281.613 147.827 281.613C145.693 281.613 144.032 280.024 144.032 277.905C144.032 275.786 145.693 274.196 147.827 274.196Z" fill="black"/>
<path d="M140.415 256.018L140.415 268.262L144.092 268.262L144.092 256.96L144.151 256.96L147.916 268.262L155.24 268.262L155.24 256.018L151.563 256.018L151.563 267.32L151.504 267.32L147.739 256.018L140.415 256.018Z" fill="black"/>
<path d="M155.24 254.481L155.24 250.066L140.415 250.066L140.415 254.481L155.24 254.481Z" fill="black"/>
<path d="M144.27 240.655C144.27 239.065 145.218 237.947 147.205 237.947L155.24 237.947L155.24 233.532L146.968 233.532C141.542 233.532 140 236.77 140 239.095C140 240.92 140.919 242.744 142.757 243.598L140.415 243.598L140.415 248.013L155.24 248.013L155.24 243.598L147.383 243.598C145.396 243.598 144.27 242.332 144.27 240.655Z" fill="black"/>
<path d="M154.647 216L140.415 216L140.415 220.415L143.024 220.415C141.245 221.474 140 223.417 140 225.713C140 229.657 143.261 232.247 147.59 232.247C151.919 232.247 155.181 229.657 155.181 225.713C155.181 223.417 153.935 221.474 152.156 220.415L154.825 220.415C157.375 220.415 158.175 222.475 158.175 224.212C158.175 225.948 157.464 227.685 156.189 228.862L159.005 231.687C160.903 229.715 162 226.949 162 224.212C162 220.209 159.776 216 154.647 216ZM147.59 220.415C149.725 220.415 151.326 222.004 151.326 224.123C151.326 226.242 149.725 227.832 147.59 227.832C145.456 227.832 143.854 226.242 143.854 224.123C143.854 222.004 145.456 220.415 147.59 220.415Z" fill="black"/>
<path d="M157.604 329L157.604 281.173L157.604 233.346L161.774 233.346L161.774 329L157.604 329Z" fill="black"/>
</g>
<rect x="205" y="54" width="41" height="58" rx="5" fill="#4A4A4A"/>
<path d="M308.518 328.654L307.824 325.174H300.073L298.839 328.629L292.626 328.641C295.584 321.507 298.548 314.375 301.519 307.245C302.024 306.036 302.922 305.421 304.244 305.427C305.256 305.436 306.905 305.436 309.196 305.43L314 328.644L308.518 328.654ZM301.818 320.408H306.813L304.947 311.687L301.818 320.408ZM261.768 305.424L268.015 305.43L258.358 328.657L252.034 328.651C250.444 322.515 248.874 316.375 247.323 310.23C247.015 309.005 246.404 308.148 245.229 307.743C243.494 307.16 241.751 306.601 240 306.067L240 305.433H249.981C251.707 305.433 252.716 306.271 253.039 307.991C253.366 309.713 254.186 314.099 255.506 321.147L261.768 305.424ZM276.599 305.43L271.66 328.651L265.715 328.644L270.648 305.424L276.599 305.43V305.43ZM288.655 305C290.434 305 292.676 305.557 293.965 306.067L292.922 310.882C291.757 310.412 289.839 309.778 288.226 309.8C285.883 309.84 284.434 310.827 284.434 311.773C284.434 313.313 286.95 314.09 289.54 315.772C292.497 317.69 292.885 319.412 292.848 321.284C292.808 325.168 289.54 329 282.646 329C279.501 328.954 278.366 328.688 275.801 327.775L276.886 322.749C279.497 323.847 280.604 324.197 282.837 324.197C284.881 324.197 286.635 323.368 286.651 321.924C286.663 320.897 286.034 320.387 283.74 319.119C281.446 317.847 278.227 316.088 278.27 312.556C278.323 308.034 282.593 305 288.658 305H288.655Z" fill="black"/>
<path d="M163 30C163 31.6569 164.343 33 166 33H286C287.657 33 289 31.6569 289 30V26H163V30Z" fill="#4A4A4A"/>
<path d="M184 328.28L173.32 328.28L173.32 326.045C173.32 325.555 173.395 325.14 173.545 324.8C173.695 324.45 173.895 324.165 174.145 323.945C174.395 323.725 174.685 323.57 175.015 323.48C175.335 323.38 175.67 323.33 176.02 323.33L176.41 323.33C176.7 323.33 176.945 323.355 177.145 323.405C177.345 323.445 177.52 323.51 177.67 323.6C177.95 323.77 178.19 324.03 178.39 324.38C178.56 324.02 178.81 323.755 179.14 323.585C179.47 323.415 179.92 323.33 180.49 323.33L181.09 323.33C182.03 323.33 182.75 323.56 183.25 324.02C183.75 324.47 184 325.195 184 326.195L184 328.28ZM179.05 326.75L182.47 326.75L182.47 326.09C182.47 325.78 182.425 325.54 182.335 325.37C182.245 325.19 182.12 325.055 181.96 324.965C181.8 324.875 181.61 324.82 181.39 324.8C181.17 324.78 180.93 324.77 180.67 324.77C180.4 324.77 180.165 324.785 179.965 324.815C179.765 324.845 179.595 324.905 179.455 324.995C179.315 325.095 179.215 325.23 179.155 325.4C179.085 325.57 179.05 325.795 179.05 326.075L179.05 326.75ZM174.76 326.75L177.7 326.75L177.7 326.06C177.7 325.55 177.575 325.21 177.325 325.04C177.065 324.86 176.69 324.77 176.2 324.77C175.72 324.77 175.36 324.87 175.12 325.07C174.88 325.26 174.76 325.61 174.76 326.12L174.76 326.75ZM173.32 307.793L181.6 307.793C181.95 307.793 182.275 307.858 182.575 307.988C182.865 308.108 183.125 308.283 183.355 308.513C183.585 308.743 183.765 309.008 183.895 309.308C184.025 309.608 184.09 309.928 184.09 310.268C184.09 310.608 184.025 310.928 183.895 311.228C183.765 311.518 183.585 311.778 183.355 312.008C183.125 312.238 182.865 312.418 182.575 312.548C182.275 312.678 181.95 312.743 181.6 312.743L173.32 312.743L173.32 311.213L181.45 311.213C181.83 311.213 182.11 311.123 182.29 310.943C182.47 310.763 182.56 310.538 182.56 310.268C182.56 309.998 182.47 309.773 182.29 309.593C182.11 309.413 181.83 309.323 181.45 309.323L173.32 309.323L173.32 307.793ZM176.395 292.257L176.395 293.787L176.05 293.787C175.7 293.787 175.4 293.872 175.15 294.042C174.89 294.202 174.76 294.477 174.76 294.867C174.76 295.077 174.8 295.247 174.88 295.377C174.96 295.507 175.06 295.612 175.18 295.692C175.31 295.772 175.46 295.827 175.63 295.857C175.79 295.887 175.96 295.902 176.14 295.902C176.35 295.902 176.525 295.897 176.665 295.887C176.805 295.867 176.93 295.827 177.04 295.767C177.15 295.707 177.245 295.622 177.325 295.512C177.405 295.392 177.485 295.232 177.565 295.032L178.03 293.862C178.16 293.522 178.315 293.247 178.495 293.037C178.665 292.827 178.865 292.662 179.095 292.542C179.335 292.432 179.61 292.357 179.92 292.317C180.22 292.277 180.565 292.257 180.955 292.257C181.405 292.257 181.825 292.302 182.215 292.392C182.595 292.482 182.92 292.627 183.19 292.827C183.47 293.037 183.69 293.312 183.85 293.652C184.01 293.992 184.09 294.407 184.09 294.897C184.09 295.267 184.025 295.612 183.895 295.932C183.765 296.252 183.585 296.527 183.355 296.757C183.125 296.987 182.86 297.172 182.56 297.312C182.25 297.442 181.915 297.507 181.555 297.507L180.985 297.507L180.985 295.977L181.465 295.977C181.745 295.977 182 295.897 182.23 295.737C182.45 295.567 182.56 295.287 182.56 294.897C182.56 294.637 182.525 294.437 182.455 294.297C182.375 294.147 182.265 294.032 182.125 293.952C181.985 293.872 181.82 293.827 181.63 293.817C181.43 293.797 181.21 293.787 180.97 293.787C180.69 293.787 180.46 293.797 180.28 293.817C180.1 293.837 179.955 293.877 179.845 293.937C179.735 294.007 179.645 294.102 179.575 294.222C179.505 294.332 179.43 294.482 179.35 294.672L178.9 295.767C178.63 296.427 178.275 296.872 177.835 297.102C177.385 297.322 176.825 297.432 176.155 297.432C175.755 297.432 175.375 297.377 175.015 297.267C174.655 297.157 174.345 296.992 174.085 296.772C173.825 296.562 173.62 296.297 173.47 295.977C173.31 295.647 173.23 295.257 173.23 294.807C173.23 294.427 173.3 294.082 173.44 293.772C173.58 293.452 173.765 293.177 173.995 292.947C174.475 292.487 175.025 292.257 175.645 292.257L176.395 292.257ZM184 281.918L173.32 281.918L173.32 280.388L184 280.388L184 281.918ZM184 269.811L173.32 269.811L173.32 268.341L179.755 266.031L179.755 266.001L173.32 266.001L173.32 264.471L184 264.471L184 265.911L177.58 268.251L177.58 268.281L184 268.281L184 269.811ZM184 253.936L173.32 253.936L173.32 249.376L174.76 249.376L174.76 252.406L177.895 252.406L177.895 249.766L179.335 249.766L179.335 252.406L182.47 252.406L182.47 249.376L184 249.376L184 253.936ZM176.395 234.284L176.395 235.814L176.05 235.814C175.7 235.814 175.4 235.899 175.15 236.069C174.89 236.229 174.76 236.504 174.76 236.894C174.76 237.104 174.8 237.274 174.88 237.404C174.96 237.534 175.06 237.639 175.18 237.719C175.31 237.799 175.46 237.854 175.63 237.884C175.79 237.914 175.96 237.929 176.14 237.929C176.35 237.929 176.525 237.924 176.665 237.914C176.805 237.894 176.93 237.854 177.04 237.794C177.15 237.734 177.245 237.649 177.325 237.539C177.405 237.419 177.485 237.259 177.565 237.059L178.03 235.889C178.16 235.549 178.315 235.274 178.495 235.064C178.665 234.854 178.865 234.689 179.095 234.569C179.335 234.459 179.61 234.384 179.92 234.344C180.22 234.304 180.565 234.284 180.955 234.284C181.405 234.284 181.825 234.329 182.215 234.419C182.595 234.509 182.92 234.654 183.19 234.854C183.47 235.064 183.69 235.339 183.85 235.679C184.01 236.019 184.09 236.434 184.09 236.924C184.09 237.294 184.025 237.639 183.895 237.959C183.765 238.279 183.585 238.554 183.355 238.784C183.125 239.014 182.86 239.199 182.56 239.339C182.25 239.469 181.915 239.534 181.555 239.534L180.985 239.534L180.985 238.004L181.465 238.004C181.745 238.004 182 237.924 182.23 237.764C182.45 237.594 182.56 237.314 182.56 236.924C182.56 236.664 182.525 236.464 182.455 236.324C182.375 236.174 182.265 236.059 182.125 235.979C181.985 235.899 181.82 235.854 181.63 235.844C181.43 235.824 181.21 235.814 180.97 235.814C180.69 235.814 180.46 235.824 180.28 235.844C180.1 235.864 179.955 235.904 179.845 235.964C179.735 236.034 179.645 236.129 179.575 236.249C179.505 236.359 179.43 236.509 179.35 236.699L178.9 237.794C178.63 238.454 178.275 238.899 177.835 239.129C177.385 239.349 176.825 239.459 176.155 239.459C175.755 239.459 175.375 239.404 175.015 239.294C174.655 239.184 174.345 239.019 174.085 238.799C173.825 238.589 173.62 238.324 173.47 238.004C173.31 237.674 173.23 237.284 173.23 236.834C173.23 236.454 173.3 236.109 173.44 235.799C173.58 235.479 173.765 235.204 173.995 234.974C174.475 234.514 175.025 234.284 175.645 234.284L176.395 234.284ZM176.395 219.041L176.395 220.571L176.05 220.571C175.7 220.571 175.4 220.656 175.15 220.826C174.89 220.986 174.76 221.261 174.76 221.651C174.76 221.861 174.8 222.031 174.88 222.161C174.96 222.291 175.06 222.396 175.18 222.476C175.31 222.556 175.46 222.611 175.63 222.641C175.79 222.671 175.96 222.686 176.14 222.686C176.35 222.686 176.525 222.681 176.665 222.671C176.805 222.651 176.93 222.611 177.04 222.551C177.15 222.491 177.245 222.406 177.325 222.296C177.405 222.176 177.485 222.016 177.565 221.816L178.03 220.646C178.16 220.306 178.315 220.031 178.495 219.821C178.665 219.611 178.865 219.446 179.095 219.326C179.335 219.216 179.61 219.141 179.92 219.101C180.22 219.061 180.565 219.041 180.955 219.041C181.405 219.041 181.825 219.086 182.215 219.176C182.595 219.266 182.92 219.411 183.19 219.611C183.47 219.821 183.69 220.096 183.85 220.436C184.01 220.776 184.09 221.191 184.09 221.681C184.09 222.051 184.025 222.396 183.895 222.716C183.765 223.036 183.585 223.311 183.355 223.541C183.125 223.771 182.86 223.956 182.56 224.096C182.25 224.226 181.915 224.291 181.555 224.291L180.985 224.291L180.985 222.761L181.465 222.761C181.745 222.761 182 222.681 182.23 222.521C182.45 222.351 182.56 222.071 182.56 221.681C182.56 221.421 182.525 221.221 182.455 221.081C182.375 220.931 182.265 220.816 182.125 220.736C181.985 220.656 181.82 220.611 181.63 220.601C181.43 220.581 181.21 220.571 180.97 220.571C180.69 220.571 180.46 220.581 180.28 220.601C180.1 220.621 179.955 220.661 179.845 220.721C179.735 220.791 179.645 220.886 179.575 221.006C179.505 221.116 179.43 221.266 179.35 221.456L178.9 222.551C178.63 223.211 178.275 223.656 177.835 223.886C177.385 224.106 176.825 224.216 176.155 224.216C175.755 224.216 175.375 224.161 175.015 224.051C174.655 223.941 174.345 223.776 174.085 223.556C173.825 223.346 173.62 223.081 173.47 222.761C173.31 222.431 173.23 222.041 173.23 221.591C173.23 221.211 173.3 220.866 173.44 220.556C173.58 220.236 173.765 219.961 173.995 219.731C174.475 219.271 175.025 219.041 175.645 219.041L176.395 219.041Z" fill="#4A4A4A"/>
<g filter="url(#filter1_d_60_37)">
<rect x="8" y="352" width="326" height="223" rx="15" transform="rotate(-90 8 352)" fill="url(#paint1_linear_60_37)"/>
<g filter="url(#filter2_d_60_37)">
<path d="M33 322.466C33 326.381 36.2615 329 40.8275 329C45.3935 329 48.655 326.381 48.655 322.466C48.655 320.17 47.5283 318.316 45.6604 317.168L48.2399 317.168L48.2399 312.753L33.4151 312.753L33.4151 317.168L35.9946 317.168C34.1267 318.316 33 320.17 33 322.466ZM40.8275 317.168C42.9623 317.168 44.6226 318.758 44.6226 320.877C44.6226 322.996 42.9623 324.585 40.8275 324.585C38.6927 324.585 37.0323 322.996 37.0323 320.877C37.0323 318.758 38.6927 317.168 40.8275 317.168Z" fill="black"/>
<path d="M37.2695 303.611C37.2695 302.169 38.2183 301.227 40.2049 301.227L48.2399 301.227L48.2399 296.812L40.3827 296.812C38.3962 296.812 37.2695 295.753 37.2695 294.134C37.2695 292.692 38.2183 291.75 40.2048 291.75L48.2399 291.75L48.2399 287.335L39.9677 287.335C34.8383 287.335 33 290.043 33 292.957C33 295.105 34.2156 296.901 35.8464 297.636C33.8302 298.696 33 300.403 33 302.051C33 303.758 33.9191 305.495 35.6981 306.289L33.4151 306.289L33.4151 310.704L48.2399 310.704L48.2399 306.289L40.3827 306.289C38.3962 306.289 37.2695 305.23 37.2695 303.611Z" fill="black"/>
<path d="M33 279.494C33 283.409 36.2615 286.028 40.8275 286.028C45.3935 286.028 48.655 283.409 48.655 279.494C48.655 277.198 47.5283 275.344 45.6604 274.196L48.2399 274.196L48.2399 269.781L33.4151 269.781L33.4151 274.196L35.9946 274.196C34.1267 275.344 33 277.198 33 279.494ZM40.8275 274.196C42.9623 274.196 44.6226 275.786 44.6226 277.905C44.6226 280.024 42.9623 281.613 40.8275 281.613C38.6927 281.613 37.0323 280.024 37.0323 277.905C37.0323 275.786 38.6927 274.196 40.8275 274.196Z" fill="black"/>
<path d="M33.4151 256.018L33.4151 268.262L37.0916 268.262L37.0916 256.96L37.1509 256.96L40.9164 268.262L48.2399 268.262L48.2399 256.018L44.5633 256.018L44.5633 267.32L44.504 267.32L40.7385 256.018L33.4151 256.018Z" fill="black"/>
<path d="M48.2399 254.481L48.2399 250.066L33.4151 250.066L33.4151 254.481L48.2399 254.481Z" fill="black"/>
<path d="M37.2695 240.655C37.2695 239.065 38.2183 237.947 40.2048 237.947L48.2399 237.947L48.2399 233.532L39.9677 233.532C34.5418 233.532 33 236.77 33 239.095C33 240.92 33.9191 242.744 35.7574 243.598L33.4151 243.598L33.4151 248.013L48.2399 248.013L48.2399 243.598L40.3827 243.598C38.3962 243.598 37.2695 242.332 37.2695 240.655Z" fill="black"/>
<path d="M47.6469 216L33.4151 216L33.4151 220.415L36.0243 220.415C34.2453 221.474 33 223.417 33 225.713C33 229.657 36.2615 232.247 40.5903 232.247C44.9191 232.247 48.1806 229.657 48.1806 225.713C48.1806 223.417 46.9353 221.474 45.1563 220.415L47.8248 220.415C50.3747 220.415 51.1752 222.475 51.1752 224.212C51.1752 225.948 50.4636 227.685 49.1887 228.862L52.0054 231.687C53.903 229.715 55 226.949 55 224.212C55 220.209 52.7763 216 47.6469 216ZM40.5903 220.415C42.7251 220.415 44.3261 222.004 44.3261 224.123C44.3261 226.242 42.7251 227.832 40.5903 227.832C38.4555 227.832 36.8544 226.242 36.8544 224.123C36.8544 222.004 38.4555 220.415 40.5903 220.415Z" fill="black"/>
<path d="M50.6045 329L50.6045 281.173L50.6044 233.346L54.7739 233.346L54.7739 329L50.6045 329Z" fill="black"/>
</g>
<rect x="98" y="54" width="41" height="58" rx="5" fill="#4A4A4A"/>
<path d="M201.518 328.654L200.824 325.174H193.073L191.839 328.629L185.626 328.641C188.584 321.507 191.548 314.375 194.519 307.245C195.024 306.036 195.922 305.421 197.244 305.427C198.256 305.436 199.905 305.436 202.196 305.43L207 328.644L201.518 328.654ZM194.818 320.408H199.813L197.947 311.687L194.818 320.408ZM154.768 305.424L161.015 305.43L151.358 328.657L145.034 328.651C143.444 322.515 141.874 316.375 140.323 310.23C140.015 309.005 139.404 308.148 138.229 307.743C136.494 307.16 134.751 306.601 133 306.067L133 305.433H142.981C144.707 305.433 145.716 306.271 146.039 307.991C146.366 309.713 147.186 314.099 148.506 321.147L154.768 305.424ZM169.599 305.43L164.66 328.651L158.715 328.644L163.648 305.424L169.599 305.43V305.43ZM181.655 305C183.434 305 185.676 305.557 186.965 306.067L185.922 310.882C184.757 310.412 182.839 309.778 181.226 309.8C178.883 309.84 177.434 310.827 177.434 311.773C177.434 313.313 179.95 314.09 182.54 315.772C185.497 317.69 185.885 319.412 185.848 321.284C185.808 325.168 182.54 329 175.646 329C172.501 328.954 171.366 328.688 168.801 327.775L169.886 322.749C172.497 323.847 173.604 324.197 175.837 324.197C177.881 324.197 179.635 323.368 179.651 321.924C179.663 320.897 179.034 320.387 176.74 319.119C174.446 317.847 171.227 316.088 171.27 312.556C171.323 308.034 175.593 305 181.658 305H181.655Z" fill="black"/>
<path d="M56 30C56 31.6569 57.3431 33 59 33H179C180.657 33 182 31.6569 182 30V26H56V30Z" fill="#4A4A4A"/>
<path d="M77 328.28L66.32 328.28L66.32 326.045C66.32 325.555 66.395 325.14 66.545 324.8C66.695 324.45 66.895 324.165 67.145 323.945C67.395 323.725 67.685 323.57 68.015 323.48C68.335 323.38 68.67 323.33 69.02 323.33L69.41 323.33C69.7 323.33 69.945 323.355 70.145 323.405C70.345 323.445 70.52 323.51 70.67 323.6C70.95 323.77 71.19 324.03 71.39 324.38C71.56 324.02 71.81 323.755 72.14 323.585C72.47 323.415 72.92 323.33 73.49 323.33L74.09 323.33C75.03 323.33 75.75 323.56 76.25 324.02C76.75 324.47 77 325.195 77 326.195L77 328.28ZM72.05 326.75L75.47 326.75L75.47 326.09C75.47 325.78 75.425 325.54 75.335 325.37C75.245 325.19 75.12 325.055 74.96 324.965C74.8 324.875 74.61 324.82 74.39 324.8C74.17 324.78 73.93 324.77 73.67 324.77C73.4 324.77 73.165 324.785 72.965 324.815C72.765 324.845 72.595 324.905 72.455 324.995C72.315 325.095 72.215 325.23 72.155 325.4C72.085 325.57 72.05 325.795 72.05 326.075L72.05 326.75ZM67.76 326.75L70.7 326.75L70.7 326.06C70.7 325.55 70.575 325.21 70.325 325.04C70.065 324.86 69.69 324.77 69.2 324.77C68.72 324.77 68.36 324.87 68.12 325.07C67.88 325.26 67.76 325.61 67.76 326.12L67.76 326.75ZM66.32 307.793L74.6 307.793C74.95 307.793 75.275 307.858 75.575 307.988C75.865 308.108 76.125 308.283 76.355 308.513C76.585 308.743 76.765 309.008 76.895 309.308C77.025 309.608 77.09 309.928 77.09 310.268C77.09 310.608 77.025 310.928 76.895 311.228C76.765 311.518 76.585 311.778 76.355 312.008C76.125 312.238 75.865 312.418 75.575 312.548C75.275 312.678 74.95 312.743 74.6 312.743L66.32 312.743L66.32 311.213L74.45 311.213C74.83 311.213 75.11 311.123 75.29 310.943C75.47 310.763 75.56 310.538 75.56 310.268C75.56 309.998 75.47 309.773 75.29 309.593C75.11 309.413 74.83 309.323 74.45 309.323L66.32 309.323L66.32 307.793ZM69.395 292.257L69.395 293.787L69.05 293.787C68.7 293.787 68.4 293.872 68.15 294.042C67.89 294.202 67.76 294.477 67.76 294.867C67.76 295.077 67.8 295.247 67.88 295.377C67.96 295.507 68.06 295.612 68.18 295.692C68.31 295.772 68.46 295.827 68.63 295.857C68.79 295.887 68.96 295.902 69.14 295.902C69.35 295.902 69.525 295.897 69.665 295.887C69.805 295.867 69.93 295.827 70.04 295.767C70.15 295.707 70.245 295.622 70.325 295.512C70.405 295.392 70.485 295.232 70.565 295.032L71.03 293.862C71.16 293.522 71.315 293.247 71.495 293.037C71.665 292.827 71.865 292.662 72.095 292.542C72.335 292.432 72.61 292.357 72.92 292.317C73.22 292.277 73.565 292.257 73.955 292.257C74.405 292.257 74.825 292.302 75.215 292.392C75.595 292.482 75.92 292.627 76.19 292.827C76.47 293.037 76.69 293.312 76.85 293.652C77.01 293.992 77.09 294.407 77.09 294.897C77.09 295.267 77.025 295.612 76.895 295.932C76.765 296.252 76.585 296.527 76.355 296.757C76.125 296.987 75.86 297.172 75.56 297.312C75.25 297.442 74.915 297.507 74.555 297.507L73.985 297.507L73.985 295.977L74.465 295.977C74.745 295.977 75 295.897 75.23 295.737C75.45 295.567 75.56 295.287 75.56 294.897C75.56 294.637 75.525 294.437 75.455 294.297C75.375 294.147 75.265 294.032 75.125 293.952C74.985 293.872 74.82 293.827 74.63 293.817C74.43 293.797 74.21 293.787 73.97 293.787C73.69 293.787 73.46 293.797 73.28 293.817C73.1 293.837 72.955 293.877 72.845 293.937C72.735 294.007 72.645 294.102 72.575 294.222C72.505 294.332 72.43 294.482 72.35 294.672L71.9 295.767C71.63 296.427 71.275 296.872 70.835 297.102C70.385 297.322 69.825 297.432 69.155 297.432C68.755 297.432 68.375 297.377 68.015 297.267C67.655 297.157 67.345 296.992 67.085 296.772C66.825 296.562 66.62 296.297 66.47 295.977C66.31 295.647 66.23 295.257 66.23 294.807C66.23 294.427 66.3 294.082 66.44 293.772C66.58 293.452 66.765 293.177 66.995 292.947C67.475 292.487 68.025 292.257 68.645 292.257L69.395 292.257ZM77 281.918L66.32 281.918L66.32 280.388L77 280.388L77 281.918ZM77 269.811L66.32 269.811L66.32 268.341L72.755 266.031L72.755 266.001L66.32 266.001L66.32 264.471L77 264.471L77 265.911L70.58 268.251L70.58 268.281L77 268.281L77 269.811ZM77 253.936L66.32 253.936L66.32 249.376L67.76 249.376L67.76 252.406L70.895 252.406L70.895 249.766L72.335 249.766L72.335 252.406L75.47 252.406L75.47 249.376L77 249.376L77 253.936ZM69.395 234.284L69.395 235.814L69.05 235.814C68.7 235.814 68.4 235.899 68.15 236.069C67.89 236.229 67.76 236.504 67.76 236.894C67.76 237.104 67.8 237.274 67.88 237.404C67.96 237.534 68.06 237.639 68.18 237.719C68.31 237.799 68.46 237.854 68.63 237.884C68.79 237.914 68.96 237.929 69.14 237.929C69.35 237.929 69.525 237.924 69.665 237.914C69.805 237.894 69.93 237.854 70.04 237.794C70.15 237.734 70.245 237.649 70.325 237.539C70.405 237.419 70.485 237.259 70.565 237.059L71.03 235.889C71.16 235.549 71.315 235.274 71.495 235.064C71.665 234.854 71.865 234.689 72.095 234.569C72.335 234.459 72.61 234.384 72.92 234.344C73.22 234.304 73.565 234.284 73.955 234.284C74.405 234.284 74.825 234.329 75.215 234.419C75.595 234.509 75.92 234.654 76.19 234.854C76.47 235.064 76.69 235.339 76.85 235.679C77.01 236.019 77.09 236.434 77.09 236.924C77.09 237.294 77.025 237.639 76.895 237.959C76.765 238.279 76.585 238.554 76.355 238.784C76.125 239.014 75.86 239.199 75.56 239.339C75.25 239.469 74.915 239.534 74.555 239.534L73.985 239.534L73.985 238.004L74.465 238.004C74.745 238.004 75 237.924 75.23 237.764C75.45 237.594 75.56 237.314 75.56 236.924C75.56 236.664 75.525 236.464 75.455 236.324C75.375 236.174 75.265 236.059 75.125 235.979C74.985 235.899 74.82 235.854 74.63 235.844C74.43 235.824 74.21 235.814 73.97 235.814C73.69 235.814 73.46 235.824 73.28 235.844C73.1 235.864 72.955 235.904 72.845 235.964C72.735 236.034 72.645 236.129 72.575 236.249C72.505 236.359 72.43 236.509 72.35 236.699L71.9 237.794C71.63 238.454 71.275 238.899 70.835 239.129C70.385 239.349 69.825 239.459 69.155 239.459C68.755 239.459 68.375 239.404 68.015 239.294C67.655 239.184 67.345 239.019 67.085 238.799C66.825 238.589 66.62 238.324 66.47 238.004C66.31 237.674 66.23 237.284 66.23 236.834C66.23 236.454 66.3 236.109 66.44 235.799C66.58 235.479 66.765 235.204 66.995 234.974C67.475 234.514 68.025 234.284 68.645 234.284L69.395 234.284ZM69.395 219.041L69.395 220.571L69.05 220.571C68.7 220.571 68.4 220.656 68.15 220.826C67.89 220.986 67.76 221.261 67.76 221.651C67.76 221.861 67.8 222.031 67.88 222.161C67.96 222.291 68.06 222.396 68.18 222.476C68.31 222.556 68.46 222.611 68.63 222.641C68.79 222.671 68.96 222.686 69.14 222.686C69.35 222.686 69.525 222.681 69.665 222.671C69.805 222.651 69.93 222.611 70.04 222.551C70.15 222.491 70.245 222.406 70.325 222.296C70.405 222.176 70.485 222.016 70.565 221.816L71.03 220.646C71.16 220.306 71.315 220.031 71.495 219.821C71.665 219.611 71.865 219.446 72.095 219.326C72.335 219.216 72.61 219.141 72.92 219.101C73.22 219.061 73.565 219.041 73.955 219.041C74.405 219.041 74.825 219.086 75.215 219.176C75.595 219.266 75.92 219.411 76.19 219.611C76.47 219.821 76.69 220.096 76.85 220.436C77.01 220.776 77.09 221.191 77.09 221.681C77.09 222.051 77.025 222.396 76.895 222.716C76.765 223.036 76.585 223.311 76.355 223.541C76.125 223.771 75.86 223.956 75.56 224.096C75.25 224.226 74.915 224.291 74.555 224.291L73.985 224.291L73.985 222.761L74.465 222.761C74.745 222.761 75 222.681 75.23 222.521C75.45 222.351 75.56 222.071 75.56 221.681C75.56 221.421 75.525 221.221 75.455 221.081C75.375 220.931 75.265 220.816 75.125 220.736C74.985 220.656 74.82 220.611 74.63 220.601C74.43 220.581 74.21 220.571 73.97 220.571C73.69 220.571 73.46 220.581 73.28 220.601C73.1 220.621 72.955 220.661 72.845 220.721C72.735 220.791 72.645 220.886 72.575 221.006C72.505 221.116 72.43 221.266 72.35 221.456L71.9 222.551C71.63 223.211 71.275 223.656 70.835 223.886C70.385 224.106 69.825 224.216 69.155 224.216C68.755 224.216 68.375 224.161 68.015 224.051C67.655 223.941 67.345 223.776 67.085 223.556C66.825 223.346 66.62 223.081 66.47 222.761C66.31 222.431 66.23 222.041 66.23 221.591C66.23 221.211 66.3 220.866 66.44 220.556C66.58 220.236 66.765 219.961 66.995 219.731C67.475 219.271 68.025 219.041 68.645 219.041L69.395 219.041Z" fill="#4A4A4A"/>
</g>
<defs>
<filter id="filter0_d_60_37" x="136" y="216" width="30" height="121" filterUnits="userSpaceOnUse" color-interpolation-filters="sRGB">
<feFlood flood-opacity="0" result="BackgroundImageFix"/>
<feColorMatrix in="SourceAlpha" type="matrix" values="0 0 0 0 0 0 0 0 0 0 0 0 0 0 0 0 0 0 127 0" result="hardAlpha"/>
<feOffset dy="4"/>
<feGaussianBlur stdDeviation="2"/>
<feComposite in2="hardAlpha" operator="out"/>
<feColorMatrix type="matrix" values="0 0 0 0 0 0 0 0 0 0 0 0 0 0 0 0 0 0 0.1 0"/>
<feBlend mode="normal" in2="BackgroundImageFix" result="effect1_dropShadow_60_37"/>
<feBlend mode="normal" in="SourceGraphic" in2="effect1_dropShadow_60_37" result="shape"/>
</filter>
<filter id="filter1_d_60_37" x="0" y="-7.62939e-06" width="275" height="378" filterUnits="userSpaceOnUse" color-interpolation-filters="sRGB">
<feFlood flood-opacity="0" result="BackgroundImageFix"/>
<feColorMatrix in="SourceAlpha" type="matrix" values="0 0 0 0 0 0 0 0 0 0 0 0 0 0 0 0 0 0 127 0" result="hardAlpha"/>
<feOffset dx="18"/>
<feGaussianBlur stdDeviation="13"/>
<feComposite in2="hardAlpha" operator="out"/>
<feColorMatrix type="matrix" values="0 0 0 0 0 0 0 0 0 0 0 0 0 0 0 0 0 0 0.25 0"/>
<feBlend mode="normal" in2="BackgroundImageFix" result="effect1_dropShadow_60_37"/>
<feBlend mode="normal" in="SourceGraphic" in2="effect1_dropShadow_60_37" result="shape"/>
</filter>
<filter id="filter2_d_60_37" x="29" y="216" width="30" height="121" filterUnits="userSpaceOnUse" color-interpolation-filters="sRGB">
<feFlood flood-opacity="0" result="BackgroundImageFix"/>
<feColorMatrix in="SourceAlpha" type="matrix" values="0 0 0 0 0 0 0 0 0 0 0 0 0 0 0 0 0 0 127 0" result="hardAlpha"/>
<feOffset dy="4"/>
<feGaussianBlur stdDeviation="2"/>
<feComposite in2="hardAlpha" operator="out"/>
<feColorMatrix type="matrix" values="0 0 0 0 0 0 0 0 0 0 0 0 0 0 0 0 0 0 0.1 0"/>
<feBlend mode="normal" in2="BackgroundImageFix" result="effect1_dropShadow_60_37"/>
<feBlend mode="normal" in="SourceGraphic" in2="effect1_dropShadow_60_37" result="shape"/>
</filter>
<linearGradient id="paint0_linear_60_37" x1="441" y1="366.5" x2="118.466" y2="573.403" gradientUnits="userSpaceOnUse">
<stop stop-color="white"/>
<stop offset="1" stop-color="#FFF3F0"/>
</linearGradient>
<linearGradient id="paint1_linear_60_37" x1="334" y1="366.5" x2="11.4663" y2="573.403" gradientUnits="userSpaceOnUse">
<stop stop-color="#808080"/>
<stop offset="1" stop-color="#EFEFEF"/>
</linearGradient>
</defs>
</svg>
