<svg width="223" height="326" viewBox="0 0 223 326" fill="none" xmlns="http://www.w3.org/2000/svg">
<rect y="326" width="326" height="223" rx="15" transform="rotate(-90 0 326)" fill="url(#paint0_linear_7_36)"/>
<g filter="url(#filter0_d_7_36)">
<path d="M25 296.466C25 300.381 28.2615 303 32.8275 303C37.3935 303 40.655 300.381 40.655 296.466C40.655 294.17 39.5283 292.316 37.6604 291.168L40.2399 291.168L40.2399 286.753L25.4151 286.753L25.4151 291.168L27.9946 291.168C26.1267 292.316 25 294.17 25 296.466ZM32.8275 291.168C34.9623 291.168 36.6226 292.758 36.6226 294.877C36.6226 296.996 34.9623 298.585 32.8275 298.585C30.6927 298.585 29.0323 296.996 29.0323 294.877C29.0323 292.758 30.6927 291.168 32.8275 291.168Z" fill="black"/>
<path d="M29.2695 277.611C29.2695 276.169 30.2183 275.227 32.2049 275.227L40.2399 275.227L40.2399 270.812L32.3827 270.812C30.3962 270.812 29.2695 269.753 29.2695 268.134C29.2695 266.692 30.2183 265.75 32.2048 265.75L40.2399 265.75L40.2399 261.335L31.9677 261.335C26.8383 261.335 25 264.043 25 266.957C25 269.105 26.2156 270.901 27.8464 271.636C25.8302 272.696 25 274.403 25 276.051C25 277.758 25.9191 279.495 27.6981 280.289L25.4151 280.289L25.4151 284.704L40.2399 284.704L40.2399 280.289L32.3827 280.289C30.3962 280.289 29.2695 279.23 29.2695 277.611Z" fill="black"/>
<path d="M25 253.494C25 257.409 28.2615 260.028 32.8275 260.028C37.3935 260.028 40.655 257.409 40.655 253.494C40.655 251.198 39.5283 249.344 37.6604 248.196L40.2399 248.196L40.2399 243.781L25.4151 243.781L25.4151 248.196L27.9946 248.196C26.1267 249.344 25 251.198 25 253.494ZM32.8275 248.196C34.9623 248.196 36.6226 249.786 36.6226 251.905C36.6226 254.024 34.9623 255.613 32.8275 255.613C30.6927 255.613 29.0323 254.024 29.0323 251.905C29.0323 249.786 30.6927 248.196 32.8275 248.196Z" fill="black"/>
<path d="M25.4151 230.018L25.4151 242.262L29.0916 242.262L29.0916 230.96L29.1509 230.96L32.9164 242.262L40.2399 242.262L40.2399 230.018L36.5633 230.018L36.5633 241.32L36.504 241.32L32.7385 230.018L25.4151 230.018Z" fill="black"/>
<path d="M40.2399 228.481L40.2399 224.066L25.4151 224.066L25.4151 228.481L40.2399 228.481Z" fill="black"/>
<path d="M29.2695 214.655C29.2695 213.065 30.2183 211.947 32.2048 211.947L40.2399 211.947L40.2399 207.532L31.9677 207.532C26.5418 207.532 25 210.77 25 213.095C25 214.92 25.9191 216.744 27.7574 217.598L25.4151 217.598L25.4151 222.013L40.2399 222.013L40.2399 217.598L32.3827 217.598C30.3962 217.598 29.2695 216.332 29.2695 214.655Z" fill="black"/>
<path d="M39.6469 190L25.4151 190L25.4151 194.415L28.0243 194.415C26.2453 195.474 25 197.417 25 199.713C25 203.657 28.2615 206.247 32.5903 206.247C36.9191 206.247 40.1806 203.657 40.1806 199.713C40.1806 197.417 38.9353 195.474 37.1563 194.415L39.8248 194.415C42.3747 194.415 43.1752 196.475 43.1752 198.212C43.1752 199.948 42.4636 201.685 41.1887 202.862L44.0054 205.687C45.903 203.715 47 200.949 47 198.212C47 194.209 44.7763 190 39.6469 190ZM32.5903 194.415C34.7251 194.415 36.3261 196.004 36.3261 198.123C36.3261 200.242 34.7251 201.832 32.5903 201.832C30.4555 201.832 28.8544 200.242 28.8544 198.123C28.8544 196.004 30.4555 194.415 32.5903 194.415Z" fill="black"/>
<path d="M42.6045 303L42.6045 255.173L42.6044 207.346L46.7739 207.346L46.7739 303L42.6045 303Z" fill="black"/>
</g>
<rect x="90" y="28" width="41" height="58" rx="5" fill="#4A4A4A"/>
<path d="M193.518 302.654L192.824 299.174H185.073L183.839 302.629L177.626 302.641C180.584 295.507 183.548 288.375 186.519 281.245C187.024 280.036 187.922 279.421 189.244 279.427C190.256 279.436 191.905 279.436 194.196 279.43L199 302.644L193.518 302.654ZM186.818 294.408H191.813L189.947 285.687L186.818 294.408ZM146.768 279.424L153.015 279.43L143.358 302.657L137.034 302.651C135.444 296.515 133.874 290.375 132.323 284.23C132.015 283.005 131.404 282.148 130.229 281.743C128.494 281.16 126.751 280.601 125 280.067L125 279.433H134.981C136.707 279.433 137.716 280.271 138.039 281.991C138.366 283.713 139.186 288.099 140.506 295.147L146.768 279.424ZM161.599 279.43L156.66 302.651L150.715 302.644L155.648 279.424L161.599 279.43V279.43ZM173.655 279C175.434 279 177.676 279.557 178.965 280.067L177.922 284.882C176.757 284.412 174.839 283.778 173.226 283.8C170.883 283.84 169.434 284.827 169.434 285.773C169.434 287.313 171.95 288.09 174.54 289.772C177.497 291.69 177.885 293.412 177.848 295.284C177.808 299.168 174.54 303 167.646 303C164.501 302.954 163.366 302.688 160.801 301.775L161.886 296.749C164.497 297.847 165.604 298.197 167.837 298.197C169.881 298.197 171.635 297.368 171.651 295.924C171.663 294.897 171.034 294.387 168.74 293.119C166.446 291.847 163.227 290.088 163.27 286.556C163.323 282.034 167.593 279 173.658 279H173.655Z" fill="black"/>
<path d="M48 4.00002C48 5.65687 49.3431 7.00002 51 7.00002H171C172.657 7.00002 174 5.65687 174 4.00002V1.52588e-05H48V4.00002Z" fill="#4A4A4A"/>
<path d="M69 302.28L58.32 302.28L58.32 300.045C58.32 299.555 58.395 299.14 58.545 298.8C58.695 298.45 58.895 298.165 59.145 297.945C59.395 297.725 59.685 297.57 60.015 297.48C60.335 297.38 60.67 297.33 61.02 297.33L61.41 297.33C61.7 297.33 61.945 297.355 62.145 297.405C62.345 297.445 62.52 297.51 62.67 297.6C62.95 297.77 63.19 298.03 63.39 298.38C63.56 298.02 63.81 297.755 64.14 297.585C64.47 297.415 64.92 297.33 65.49 297.33L66.09 297.33C67.03 297.33 67.75 297.56 68.25 298.02C68.75 298.47 69 299.195 69 300.195L69 302.28ZM64.05 300.75L67.47 300.75L67.47 300.09C67.47 299.78 67.425 299.54 67.335 299.37C67.245 299.19 67.12 299.055 66.96 298.965C66.8 298.875 66.61 298.82 66.39 298.8C66.17 298.78 65.93 298.77 65.67 298.77C65.4 298.77 65.165 298.785 64.965 298.815C64.765 298.845 64.595 298.905 64.455 298.995C64.315 299.095 64.215 299.23 64.155 299.4C64.085 299.57 64.05 299.795 64.05 300.075L64.05 300.75ZM59.76 300.75L62.7 300.75L62.7 300.06C62.7 299.55 62.575 299.21 62.325 299.04C62.065 298.86 61.69 298.77 61.2 298.77C60.72 298.77 60.36 298.87 60.12 299.07C59.88 299.26 59.76 299.61 59.76 300.12L59.76 300.75ZM58.32 281.793L66.6 281.793C66.95 281.793 67.275 281.858 67.575 281.988C67.865 282.108 68.125 282.283 68.355 282.513C68.585 282.743 68.765 283.008 68.895 283.308C69.025 283.608 69.09 283.928 69.09 284.268C69.09 284.608 69.025 284.928 68.895 285.228C68.765 285.518 68.585 285.778 68.355 286.008C68.125 286.238 67.865 286.418 67.575 286.548C67.275 286.678 66.95 286.743 66.6 286.743L58.32 286.743L58.32 285.213L66.45 285.213C66.83 285.213 67.11 285.123 67.29 284.943C67.47 284.763 67.56 284.538 67.56 284.268C67.56 283.998 67.47 283.773 67.29 283.593C67.11 283.413 66.83 283.323 66.45 283.323L58.32 283.323L58.32 281.793ZM61.395 266.257L61.395 267.787L61.05 267.787C60.7 267.787 60.4 267.872 60.15 268.042C59.89 268.202 59.76 268.477 59.76 268.867C59.76 269.077 59.8 269.247 59.88 269.377C59.96 269.507 60.06 269.612 60.18 269.692C60.31 269.772 60.46 269.827 60.63 269.857C60.79 269.887 60.96 269.902 61.14 269.902C61.35 269.902 61.525 269.897 61.665 269.887C61.805 269.867 61.93 269.827 62.04 269.767C62.15 269.707 62.245 269.622 62.325 269.512C62.405 269.392 62.485 269.232 62.565 269.032L63.03 267.862C63.16 267.522 63.315 267.247 63.495 267.037C63.665 266.827 63.865 266.662 64.095 266.542C64.335 266.432 64.61 266.357 64.92 266.317C65.22 266.277 65.565 266.257 65.955 266.257C66.405 266.257 66.825 266.302 67.215 266.392C67.595 266.482 67.92 266.627 68.19 266.827C68.47 267.037 68.69 267.312 68.85 267.652C69.01 267.992 69.09 268.407 69.09 268.897C69.09 269.267 69.025 269.612 68.895 269.932C68.765 270.252 68.585 270.527 68.355 270.757C68.125 270.987 67.86 271.172 67.56 271.312C67.25 271.442 66.915 271.507 66.555 271.507L65.985 271.507L65.985 269.977L66.465 269.977C66.745 269.977 67 269.897 67.23 269.737C67.45 269.567 67.56 269.287 67.56 268.897C67.56 268.637 67.525 268.437 67.455 268.297C67.375 268.147 67.265 268.032 67.125 267.952C66.985 267.872 66.82 267.827 66.63 267.817C66.43 267.797 66.21 267.787 65.97 267.787C65.69 267.787 65.46 267.797 65.28 267.817C65.1 267.837 64.955 267.877 64.845 267.937C64.735 268.007 64.645 268.102 64.575 268.222C64.505 268.332 64.43 268.482 64.35 268.672L63.9 269.767C63.63 270.427 63.275 270.872 62.835 271.102C62.385 271.322 61.825 271.432 61.155 271.432C60.755 271.432 60.375 271.377 60.015 271.267C59.655 271.157 59.345 270.992 59.085 270.772C58.825 270.562 58.62 270.297 58.47 269.977C58.31 269.647 58.23 269.257 58.23 268.807C58.23 268.427 58.3 268.082 58.44 267.772C58.58 267.452 58.765 267.177 58.995 266.947C59.475 266.487 60.025 266.257 60.645 266.257L61.395 266.257ZM69 255.918L58.32 255.918L58.32 254.388L69 254.388L69 255.918ZM69 243.811L58.32 243.811L58.32 242.341L64.755 240.031L64.755 240.001L58.32 240.001L58.32 238.471L69 238.471L69 239.911L62.58 242.251L62.58 242.281L69 242.281L69 243.811ZM69 227.936L58.32 227.936L58.32 223.376L59.76 223.376L59.76 226.406L62.895 226.406L62.895 223.766L64.335 223.766L64.335 226.406L67.47 226.406L67.47 223.376L69 223.376L69 227.936ZM61.395 208.284L61.395 209.814L61.05 209.814C60.7 209.814 60.4 209.899 60.15 210.069C59.89 210.229 59.76 210.504 59.76 210.894C59.76 211.104 59.8 211.274 59.88 211.404C59.96 211.534 60.06 211.639 60.18 211.719C60.31 211.799 60.46 211.854 60.63 211.884C60.79 211.914 60.96 211.929 61.14 211.929C61.35 211.929 61.525 211.924 61.665 211.914C61.805 211.894 61.93 211.854 62.04 211.794C62.15 211.734 62.245 211.649 62.325 211.539C62.405 211.419 62.485 211.259 62.565 211.059L63.03 209.889C63.16 209.549 63.315 209.274 63.495 209.064C63.665 208.854 63.865 208.689 64.095 208.569C64.335 208.459 64.61 208.384 64.92 208.344C65.22 208.304 65.565 208.284 65.955 208.284C66.405 208.284 66.825 208.329 67.215 208.419C67.595 208.509 67.92 208.654 68.19 208.854C68.47 209.064 68.69 209.339 68.85 209.679C69.01 210.019 69.09 210.434 69.09 210.924C69.09 211.294 69.025 211.639 68.895 211.959C68.765 212.279 68.585 212.554 68.355 212.784C68.125 213.014 67.86 213.199 67.56 213.339C67.25 213.469 66.915 213.534 66.555 213.534L65.985 213.534L65.985 212.004L66.465 212.004C66.745 212.004 67 211.924 67.23 211.764C67.45 211.594 67.56 211.314 67.56 210.924C67.56 210.664 67.525 210.464 67.455 210.324C67.375 210.174 67.265 210.059 67.125 209.979C66.985 209.899 66.82 209.854 66.63 209.844C66.43 209.824 66.21 209.814 65.97 209.814C65.69 209.814 65.46 209.824 65.28 209.844C65.1 209.864 64.955 209.904 64.845 209.964C64.735 210.034 64.645 210.129 64.575 210.249C64.505 210.359 64.43 210.509 64.35 210.699L63.9 211.794C63.63 212.454 63.275 212.899 62.835 213.129C62.385 213.349 61.825 213.459 61.155 213.459C60.755 213.459 60.375 213.404 60.015 213.294C59.655 213.184 59.345 213.019 59.085 212.799C58.825 212.589 58.62 212.324 58.47 212.004C58.31 211.674 58.23 211.284 58.23 210.834C58.23 210.454 58.3 210.109 58.44 209.799C58.58 209.479 58.765 209.204 58.995 208.974C59.475 208.514 60.025 208.284 60.645 208.284L61.395 208.284ZM61.395 193.041L61.395 194.571L61.05 194.571C60.7 194.571 60.4 194.656 60.15 194.826C59.89 194.986 59.76 195.261 59.76 195.651C59.76 195.861 59.8 196.031 59.88 196.161C59.96 196.291 60.06 196.396 60.18 196.476C60.31 196.556 60.46 196.611 60.63 196.641C60.79 196.671 60.96 196.686 61.14 196.686C61.35 196.686 61.525 196.681 61.665 196.671C61.805 196.651 61.93 196.611 62.04 196.551C62.15 196.491 62.245 196.406 62.325 196.296C62.405 196.176 62.485 196.016 62.565 195.816L63.03 194.646C63.16 194.306 63.315 194.031 63.495 193.821C63.665 193.611 63.865 193.446 64.095 193.326C64.335 193.216 64.61 193.141 64.92 193.101C65.22 193.061 65.565 193.041 65.955 193.041C66.405 193.041 66.825 193.086 67.215 193.176C67.595 193.266 67.92 193.411 68.19 193.611C68.47 193.821 68.69 194.096 68.85 194.436C69.01 194.776 69.09 195.191 69.09 195.681C69.09 196.051 69.025 196.396 68.895 196.716C68.765 197.036 68.585 197.311 68.355 197.541C68.125 197.771 67.86 197.956 67.56 198.096C67.25 198.226 66.915 198.291 66.555 198.291L65.985 198.291L65.985 196.761L66.465 196.761C66.745 196.761 67 196.681 67.23 196.521C67.45 196.351 67.56 196.071 67.56 195.681C67.56 195.421 67.525 195.221 67.455 195.081C67.375 194.931 67.265 194.816 67.125 194.736C66.985 194.656 66.82 194.611 66.63 194.601C66.43 194.581 66.21 194.571 65.97 194.571C65.69 194.571 65.46 194.581 65.28 194.601C65.1 194.621 64.955 194.661 64.845 194.721C64.735 194.791 64.645 194.886 64.575 195.006C64.505 195.116 64.43 195.266 64.35 195.456L63.9 196.551C63.63 197.211 63.275 197.656 62.835 197.886C62.385 198.106 61.825 198.216 61.155 198.216C60.755 198.216 60.375 198.161 60.015 198.051C59.655 197.941 59.345 197.776 59.085 197.556C58.825 197.346 58.62 197.081 58.47 196.761C58.31 196.431 58.23 196.041 58.23 195.591C58.23 195.211 58.3 194.866 58.44 194.556C58.58 194.236 58.765 193.961 58.995 193.731C59.475 193.271 60.025 193.041 60.645 193.041L61.395 193.041Z" fill="#4A4A4A"/>
<defs>
<filter id="filter0_d_7_36" x="21" y="190" width="30" height="121" filterUnits="userSpaceOnUse" color-interpolation-filters="sRGB">
<feFlood flood-opacity="0" result="BackgroundImageFix"/>
<feColorMatrix in="SourceAlpha" type="matrix" values="0 0 0 0 0 0 0 0 0 0 0 0 0 0 0 0 0 0 127 0" result="hardAlpha"/>
<feOffset dy="4"/>
<feGaussianBlur stdDeviation="2"/>
<feComposite in2="hardAlpha" operator="out"/>
<feColorMatrix type="matrix" values="0 0 0 0 0 0 0 0 0 0 0 0 0 0 0 0 0 0 0.1 0"/>
<feBlend mode="normal" in2="BackgroundImageFix" result="effect1_dropShadow_7_36"/>
<feBlend mode="normal" in="SourceGraphic" in2="effect1_dropShadow_7_36" result="shape"/>
</filter>
<linearGradient id="paint0_linear_7_36" x1="326" y1="340.5" x2="3.4663" y2="547.403" gradientUnits="userSpaceOnUse">
<stop stop-color="#808080"/>
<stop offset="1" stop-color="#EFEFEF"/>
</linearGradient>
</defs>
</svg>
