<svg width="275" height="378" viewBox="0 0 275 378" fill="none" xmlns="http://www.w3.org/2000/svg">
<g filter="url(#filter0_d_7_36)">
<rect x="8" y="352" width="326" height="223" rx="15" transform="rotate(-90 8 352)" fill="url(#paint0_linear_7_36)"/>
<g filter="url(#filter1_d_7_36)">
<path d="M33 322.466C33 326.381 36.2615 329 40.8275 329C45.3935 329 48.655 326.381 48.655 322.466C48.655 320.17 47.5283 318.316 45.6604 317.168L48.2399 317.168L48.2399 312.753L33.4151 312.753L33.4151 317.168L35.9946 317.168C34.1267 318.316 33 320.17 33 322.466ZM40.8275 317.168C42.9623 317.168 44.6226 318.758 44.6226 320.877C44.6226 322.996 42.9623 324.585 40.8275 324.585C38.6927 324.585 37.0323 322.996 37.0323 320.877C37.0323 318.758 38.6927 317.168 40.8275 317.168Z" fill="black"/>
<path d="M37.2695 303.611C37.2695 302.169 38.2183 301.227 40.2049 301.227L48.2399 301.227L48.2399 296.812L40.3827 296.812C38.3962 296.812 37.2695 295.753 37.2695 294.134C37.2695 292.692 38.2183 291.75 40.2048 291.75L48.2399 291.75L48.2399 287.335L39.9677 287.335C34.8383 287.335 33 290.043 33 292.957C33 295.105 34.2156 296.901 35.8464 297.636C33.8302 298.696 33 300.403 33 302.051C33 303.758 33.9191 305.495 35.6981 306.289L33.4151 306.289L33.4151 310.704L48.2399 310.704L48.2399 306.289L40.3827 306.289C38.3962 306.289 37.2695 305.23 37.2695 303.611Z" fill="black"/>
<path d="M33 279.494C33 283.409 36.2615 286.028 40.8275 286.028C45.3935 286.028 48.655 283.409 48.655 279.494C48.655 277.198 47.5283 275.344 45.6604 274.196L48.2399 274.196L48.2399 269.781L33.4151 269.781L33.4151 274.196L35.9946 274.196C34.1267 275.344 33 277.198 33 279.494ZM40.8275 274.196C42.9623 274.196 44.6226 275.786 44.6226 277.905C44.6226 280.024 42.9623 281.613 40.8275 281.613C38.6927 281.613 37.0323 280.024 37.0323 277.905C37.0323 275.786 38.6927 274.196 40.8275 274.196Z" fill="black"/>
<path d="M33.4151 256.018L33.4151 268.262L37.0916 268.262L37.0916 256.96L37.1509 256.96L40.9164 268.262L48.2399 268.262L48.2399 256.018L44.5633 256.018L44.5633 267.32L44.504 267.32L40.7385 256.018L33.4151 256.018Z" fill="black"/>
<path d="M48.2399 254.481L48.2399 250.066L33.4151 250.066L33.4151 254.481L48.2399 254.481Z" fill="black"/>
<path d="M37.2695 240.655C37.2695 239.065 38.2183 237.947 40.2048 237.947L48.2399 237.947L48.2399 233.532L39.9677 233.532C34.5418 233.532 33 236.77 33 239.095C33 240.92 33.9191 242.744 35.7574 243.598L33.4151 243.598L33.4151 248.013L48.2399 248.013L48.2399 243.598L40.3827 243.598C38.3962 243.598 37.2695 242.332 37.2695 240.655Z" fill="black"/>
<path d="M47.6469 216L33.4151 216L33.4151 220.415L36.0243 220.415C34.2453 221.474 33 223.417 33 225.713C33 229.657 36.2615 232.247 40.5903 232.247C44.9191 232.247 48.1806 229.657 48.1806 225.713C48.1806 223.417 46.9353 221.474 45.1563 220.415L47.8248 220.415C50.3747 220.415 51.1752 222.475 51.1752 224.212C51.1752 225.948 50.4636 227.685 49.1887 228.862L52.0054 231.687C53.903 229.715 55 226.949 55 224.212C55 220.209 52.7763 216 47.6469 216ZM40.5903 220.415C42.7251 220.415 44.3261 222.004 44.3261 224.123C44.3261 226.242 42.7251 227.832 40.5903 227.832C38.4555 227.832 36.8544 226.242 36.8544 224.123C36.8544 222.004 38.4555 220.415 40.5903 220.415Z" fill="black"/>
<path d="M50.6045 329L50.6045 281.173L50.6044 233.346L54.7739 233.346L54.7739 329L50.6045 329Z" fill="black"/>
</g>
<rect x="98" y="54" width="41" height="58" rx="5" fill="#4A4A4A"/>
<path d="M201.518 328.654L200.824 325.174H193.073L191.839 328.629L185.626 328.641C188.584 321.507 191.548 314.375 194.519 307.245C195.024 306.036 195.922 305.421 197.244 305.427C198.256 305.436 199.905 305.436 202.196 305.43L207 328.644L201.518 328.654ZM194.818 320.408H199.813L197.947 311.687L194.818 320.408ZM154.768 305.424L161.015 305.43L151.358 328.657L145.034 328.651C143.444 322.515 141.874 316.375 140.323 310.23C140.015 309.005 139.404 308.148 138.229 307.743C136.494 307.16 134.751 306.601 133 306.067L133 305.433H142.981C144.707 305.433 145.716 306.271 146.039 307.991C146.366 309.713 147.186 314.099 148.506 321.147L154.768 305.424ZM169.599 305.43L164.66 328.651L158.715 328.644L163.648 305.424L169.599 305.43V305.43ZM181.655 305C183.434 305 185.676 305.557 186.965 306.067L185.922 310.882C184.757 310.412 182.839 309.778 181.226 309.8C178.883 309.84 177.434 310.827 177.434 311.773C177.434 313.313 179.95 314.09 182.54 315.772C185.497 317.69 185.885 319.412 185.848 321.284C185.808 325.168 182.54 329 175.646 329C172.501 328.954 171.366 328.688 168.801 327.775L169.886 322.749C172.497 323.847 173.604 324.197 175.837 324.197C177.881 324.197 179.635 323.368 179.651 321.924C179.663 320.897 179.034 320.387 176.74 319.119C174.446 317.847 171.227 316.088 171.27 312.556C171.323 308.034 175.593 305 181.658 305H181.655Z" fill="black"/>
<path d="M56 30C56 31.6569 57.3431 33 59 33H179C180.657 33 182 31.6569 182 30V26H56V30Z" fill="#4A4A4A"/>
<path d="M77 328.28L66.32 328.28L66.32 326.045C66.32 325.555 66.395 325.14 66.545 324.8C66.695 324.45 66.895 324.165 67.145 323.945C67.395 323.725 67.685 323.57 68.015 323.48C68.335 323.38 68.67 323.33 69.02 323.33L69.41 323.33C69.7 323.33 69.945 323.355 70.145 323.405C70.345 323.445 70.52 323.51 70.67 323.6C70.95 323.77 71.19 324.03 71.39 324.38C71.56 324.02 71.81 323.755 72.14 323.585C72.47 323.415 72.92 323.33 73.49 323.33L74.09 323.33C75.03 323.33 75.75 323.56 76.25 324.02C76.75 324.47 77 325.195 77 326.195L77 328.28ZM72.05 326.75L75.47 326.75L75.47 326.09C75.47 325.78 75.425 325.54 75.335 325.37C75.245 325.19 75.12 325.055 74.96 324.965C74.8 324.875 74.61 324.82 74.39 324.8C74.17 324.78 73.93 324.77 73.67 324.77C73.4 324.77 73.165 324.785 72.965 324.815C72.765 324.845 72.595 324.905 72.455 324.995C72.315 325.095 72.215 325.23 72.155 325.4C72.085 325.57 72.05 325.795 72.05 326.075L72.05 326.75ZM67.76 326.75L70.7 326.75L70.7 326.06C70.7 325.55 70.575 325.21 70.325 325.04C70.065 324.86 69.69 324.77 69.2 324.77C68.72 324.77 68.36 324.87 68.12 325.07C67.88 325.26 67.76 325.61 67.76 326.12L67.76 326.75ZM66.32 307.793L74.6 307.793C74.95 307.793 75.275 307.858 75.575 307.988C75.865 308.108 76.125 308.283 76.355 308.513C76.585 308.743 76.765 309.008 76.895 309.308C77.025 309.608 77.09 309.928 77.09 310.268C77.09 310.608 77.025 310.928 76.895 311.228C76.765 311.518 76.585 311.778 76.355 312.008C76.125 312.238 75.865 312.418 75.575 312.548C75.275 312.678 74.95 312.743 74.6 312.743L66.32 312.743L66.32 311.213L74.45 311.213C74.83 311.213 75.11 311.123 75.29 310.943C75.47 310.763 75.56 310.538 75.56 310.268C75.56 309.998 75.47 309.773 75.29 309.593C75.11 309.413 74.83 309.323 74.45 309.323L66.32 309.323L66.32 307.793ZM69.395 292.257L69.395 293.787L69.05 293.787C68.7 293.787 68.4 293.872 68.15 294.042C67.89 294.202 67.76 294.477 67.76 294.867C67.76 295.077 67.8 295.247 67.88 295.377C67.96 295.507 68.06 295.612 68.18 295.692C68.31 295.772 68.46 295.827 68.63 295.857C68.79 295.887 68.96 295.902 69.14 295.902C69.35 295.902 69.525 295.897 69.665 295.887C69.805 295.867 69.93 295.827 70.04 295.767C70.15 295.707 70.245 295.622 70.325 295.512C70.405 295.392 70.485 295.232 70.565 295.032L71.03 293.862C71.16 293.522 71.315 293.247 71.495 293.037C71.665 292.827 71.865 292.662 72.095 292.542C72.335 292.432 72.61 292.357 72.92 292.317C73.22 292.277 73.565 292.257 73.955 292.257C74.405 292.257 74.825 292.302 75.215 292.392C75.595 292.482 75.92 292.627 76.19 292.827C76.47 293.037 76.69 293.312 76.85 293.652C77.01 293.992 77.09 294.407 77.09 294.897C77.09 295.267 77.025 295.612 76.895 295.932C76.765 296.252 76.585 296.527 76.355 296.757C76.125 296.987 75.86 297.172 75.56 297.312C75.25 297.442 74.915 297.507 74.555 297.507L73.985 297.507L73.985 295.977L74.465 295.977C74.745 295.977 75 295.897 75.23 295.737C75.45 295.567 75.56 295.287 75.56 294.897C75.56 294.637 75.525 294.437 75.455 294.297C75.375 294.147 75.265 294.032 75.125 293.952C74.985 293.872 74.82 293.827 74.63 293.817C74.43 293.797 74.21 293.787 73.97 293.787C73.69 293.787 73.46 293.797 73.28 293.817C73.1 293.837 72.955 293.877 72.845 293.937C72.735 294.007 72.645 294.102 72.575 294.222C72.505 294.332 72.43 294.482 72.35 294.672L71.9 295.767C71.63 296.427 71.275 296.872 70.835 297.102C70.385 297.322 69.825 297.432 69.155 297.432C68.755 297.432 68.375 297.377 68.015 297.267C67.655 297.157 67.345 296.992 67.085 296.772C66.825 296.562 66.62 296.297 66.47 295.977C66.31 295.647 66.23 295.257 66.23 294.807C66.23 294.427 66.3 294.082 66.44 293.772C66.58 293.452 66.765 293.177 66.995 292.947C67.475 292.487 68.025 292.257 68.645 292.257L69.395 292.257ZM77 281.918L66.32 281.918L66.32 280.388L77 280.388L77 281.918ZM77 269.811L66.32 269.811L66.32 268.341L72.755 266.031L72.755 266.001L66.32 266.001L66.32 264.471L77 264.471L77 265.911L70.58 268.251L70.58 268.281L77 268.281L77 269.811ZM77 253.936L66.32 253.936L66.32 249.376L67.76 249.376L67.76 252.406L70.895 252.406L70.895 249.766L72.335 249.766L72.335 252.406L75.47 252.406L75.47 249.376L77 249.376L77 253.936ZM69.395 234.284L69.395 235.814L69.05 235.814C68.7 235.814 68.4 235.899 68.15 236.069C67.89 236.229 67.76 236.504 67.76 236.894C67.76 237.104 67.8 237.274 67.88 237.404C67.96 237.534 68.06 237.639 68.18 237.719C68.31 237.799 68.46 237.854 68.63 237.884C68.79 237.914 68.96 237.929 69.14 237.929C69.35 237.929 69.525 237.924 69.665 237.914C69.805 237.894 69.93 237.854 70.04 237.794C70.15 237.734 70.245 237.649 70.325 237.539C70.405 237.419 70.485 237.259 70.565 237.059L71.03 235.889C71.16 235.549 71.315 235.274 71.495 235.064C71.665 234.854 71.865 234.689 72.095 234.569C72.335 234.459 72.61 234.384 72.92 234.344C73.22 234.304 73.565 234.284 73.955 234.284C74.405 234.284 74.825 234.329 75.215 234.419C75.595 234.509 75.92 234.654 76.19 234.854C76.47 235.064 76.69 235.339 76.85 235.679C77.01 236.019 77.09 236.434 77.09 236.924C77.09 237.294 77.025 237.639 76.895 237.959C76.765 238.279 76.585 238.554 76.355 238.784C76.125 239.014 75.86 239.199 75.56 239.339C75.25 239.469 74.915 239.534 74.555 239.534L73.985 239.534L73.985 238.004L74.465 238.004C74.745 238.004 75 237.924 75.23 237.764C75.45 237.594 75.56 237.314 75.56 236.924C75.56 236.664 75.525 236.464 75.455 236.324C75.375 236.174 75.265 236.059 75.125 235.979C74.985 235.899 74.82 235.854 74.63 235.844C74.43 235.824 74.21 235.814 73.97 235.814C73.69 235.814 73.46 235.824 73.28 235.844C73.1 235.864 72.955 235.904 72.845 235.964C72.735 236.034 72.645 236.129 72.575 236.249C72.505 236.359 72.43 236.509 72.35 236.699L71.9 237.794C71.63 238.454 71.275 238.899 70.835 239.129C70.385 239.349 69.825 239.459 69.155 239.459C68.755 239.459 68.375 239.404 68.015 239.294C67.655 239.184 67.345 239.019 67.085 238.799C66.825 238.589 66.62 238.324 66.47 238.004C66.31 237.674 66.23 237.284 66.23 236.834C66.23 236.454 66.3 236.109 66.44 235.799C66.58 235.479 66.765 235.204 66.995 234.974C67.475 234.514 68.025 234.284 68.645 234.284L69.395 234.284ZM69.395 219.041L69.395 220.571L69.05 220.571C68.7 220.571 68.4 220.656 68.15 220.826C67.89 220.986 67.76 221.261 67.76 221.651C67.76 221.861 67.8 222.031 67.88 222.161C67.96 222.291 68.06 222.396 68.18 222.476C68.31 222.556 68.46 222.611 68.63 222.641C68.79 222.671 68.96 222.686 69.14 222.686C69.35 222.686 69.525 222.681 69.665 222.671C69.805 222.651 69.93 222.611 70.04 222.551C70.15 222.491 70.245 222.406 70.325 222.296C70.405 222.176 70.485 222.016 70.565 221.816L71.03 220.646C71.16 220.306 71.315 220.031 71.495 219.821C71.665 219.611 71.865 219.446 72.095 219.326C72.335 219.216 72.61 219.141 72.92 219.101C73.22 219.061 73.565 219.041 73.955 219.041C74.405 219.041 74.825 219.086 75.215 219.176C75.595 219.266 75.92 219.411 76.19 219.611C76.47 219.821 76.69 220.096 76.85 220.436C77.01 220.776 77.09 221.191 77.09 221.681C77.09 222.051 77.025 222.396 76.895 222.716C76.765 223.036 76.585 223.311 76.355 223.541C76.125 223.771 75.86 223.956 75.56 224.096C75.25 224.226 74.915 224.291 74.555 224.291L73.985 224.291L73.985 222.761L74.465 222.761C74.745 222.761 75 222.681 75.23 222.521C75.45 222.351 75.56 222.071 75.56 221.681C75.56 221.421 75.525 221.221 75.455 221.081C75.375 220.931 75.265 220.816 75.125 220.736C74.985 220.656 74.82 220.611 74.63 220.601C74.43 220.581 74.21 220.571 73.97 220.571C73.69 220.571 73.46 220.581 73.28 220.601C73.1 220.621 72.955 220.661 72.845 220.721C72.735 220.791 72.645 220.886 72.575 221.006C72.505 221.116 72.43 221.266 72.35 221.456L71.9 222.551C71.63 223.211 71.275 223.656 70.835 223.886C70.385 224.106 69.825 224.216 69.155 224.216C68.755 224.216 68.375 224.161 68.015 224.051C67.655 223.941 67.345 223.776 67.085 223.556C66.825 223.346 66.62 223.081 66.47 222.761C66.31 222.431 66.23 222.041 66.23 221.591C66.23 221.211 66.3 220.866 66.44 220.556C66.58 220.236 66.765 219.961 66.995 219.731C67.475 219.271 68.025 219.041 68.645 219.041L69.395 219.041Z" fill="#4A4A4A"/>
</g>
<defs>
<filter id="filter0_d_7_36" x="0" y="-7.62939e-06" width="275" height="378" filterUnits="userSpaceOnUse" color-interpolation-filters="sRGB">
<feFlood flood-opacity="0" result="BackgroundImageFix"/>
<feColorMatrix in="SourceAlpha" type="matrix" values="0 0 0 0 0 0 0 0 0 0 0 0 0 0 0 0 0 0 127 0" result="hardAlpha"/>
<feOffset dx="18"/>
<feGaussianBlur stdDeviation="13"/>
<feComposite in2="hardAlpha" operator="out"/>
<feColorMatrix type="matrix" values="0 0 0 0 0 0 0 0 0 0 0 0 0 0 0 0 0 0 0.25 0"/>
<feBlend mode="normal" in2="BackgroundImageFix" result="effect1_dropShadow_7_36"/>
<feBlend mode="normal" in="SourceGraphic" in2="effect1_dropShadow_7_36" result="shape"/>
</filter>
<filter id="filter1_d_7_36" x="29" y="216" width="30" height="121" filterUnits="userSpaceOnUse" color-interpolation-filters="sRGB">
<feFlood flood-opacity="0" result="BackgroundImageFix"/>
<feColorMatrix in="SourceAlpha" type="matrix" values="0 0 0 0 0 0 0 0 0 0 0 0 0 0 0 0 0 0 127 0" result="hardAlpha"/>
<feOffset dy="4"/>
<feGaussianBlur stdDeviation="2"/>
<feComposite in2="hardAlpha" operator="out"/>
<feColorMatrix type="matrix" values="0 0 0 0 0 0 0 0 0 0 0 0 0 0 0 0 0 0 0.1 0"/>
<feBlend mode="normal" in2="BackgroundImageFix" result="effect1_dropShadow_7_36"/>
<feBlend mode="normal" in="SourceGraphic" in2="effect1_dropShadow_7_36" result="shape"/>
</filter>
<linearGradient id="paint0_linear_7_36" x1="334" y1="366.5" x2="11.4663" y2="573.403" gradientUnits="userSpaceOnUse">
<stop stop-color="#808080"/>
<stop offset="1" stop-color="#EFEFEF"/>
</linearGradient>
</defs>
</svg>
