<svg width="50" height="50" viewBox="0 0 50 50" fill="none" xmlns="http://www.w3.org/2000/svg">
<circle cx="25" cy="25" r="25" fill="#151515"/>
<path d="M24.95 34.0196C25.9667 34.0196 26.8542 33.8292 27.6125 33.4484C28.3708 33.059 28.9583 32.5259 29.375 31.8488C29.7917 31.1718 30 30.3762 30 29.4622V29.0433C30 27.9177 29.7458 26.9825 29.2375 26.2377C28.7375 25.493 27.9208 24.7821 26.7875 24.105L25.3125 23.2291C24.8208 22.9075 24.4333 22.6197 24.15 22.3658C23.8667 22.1119 23.6625 21.8538 23.5375 21.5915C23.4125 21.3291 23.35 21.0244 23.35 20.6774V20.2712C23.35 19.9581 23.4167 19.6872 23.55 19.4587C23.6833 19.2218 23.8708 19.0398 24.1125 18.9129C24.3542 18.7775 24.6417 18.7098 24.975 18.7098C25.325 18.7098 25.6208 18.7902 25.8625 18.951C26.1042 19.1033 26.2875 19.3276 26.4125 19.6238C26.5458 19.92 26.6208 20.2839 26.6375 20.7155L26.65 21.7946H29.7625V20.8171C29.7375 19.81 29.5333 18.9467 29.15 18.2274C28.775 17.4995 28.2333 16.9452 27.525 16.5643C26.825 16.175 25.9833 15.9804 25 15.9804C24.0167 15.9804 23.1542 16.175 22.4125 16.5643C21.6792 16.9452 21.1083 17.4784 20.7 18.1639C20.2917 18.8409 20.0875 19.6322 20.0875 20.5378V20.9313C20.0875 21.6676 20.2 22.3278 20.425 22.9117C20.65 23.4872 20.9958 24.0119 21.4625 24.4859C21.9292 24.9598 22.5208 25.4083 23.2375 25.8315L24.75 26.7328C25.4917 27.2068 26.0083 27.6257 26.3 27.9896C26.5917 28.3535 26.7375 28.8105 26.7375 29.3606V29.7796C26.7375 30.0927 26.6625 30.3635 26.5125 30.592C26.3708 30.8121 26.1667 30.9856 25.9 31.1125C25.6417 31.231 25.3333 31.2902 24.975 31.2902C24.6 31.2902 24.275 31.2141 24 31.0617C23.725 30.9094 23.5125 30.6894 23.3625 30.4016C23.2208 30.1054 23.1417 29.7457 23.125 29.3226V28.2308L20 28.2435V29.221C20.0167 30.2197 20.2292 31.0787 20.6375 31.798C21.0458 32.5089 21.6167 33.059 22.35 33.4484C23.0833 33.8292 23.95 34.0196 24.95 34.0196ZM24.5 36H25.5V14H24.5V36Z" fill="url(#paint0_linear_72_54)"/>
<defs>
<linearGradient id="paint0_linear_72_54" x1="4" y1="1.65055" x2="49.5221" y2="48.3953" gradientUnits="userSpaceOnUse">
<stop stop-color="#F5D9D1"/>
<stop offset="1" stop-color="#BDC1FA"/>
</linearGradient>
</defs>
</svg>
