<svg width="50" height="50" viewBox="0 0 50 50" fill="none" xmlns="http://www.w3.org/2000/svg">
<circle cx="25" cy="25" r="25" fill="#151515"/>
<path fill-rule="evenodd" clip-rule="evenodd" d="M25.0245 13C22.1235 13 19.4801 13.9947 17.9162 14.8075C17.7749 14.8808 17.6433 14.9528 17.5206 15.0222C17.2778 15.1595 17.071 15.2875 16.9066 15.4002L18.6856 18.1191L19.5231 18.4651C22.796 20.1793 27.185 20.1793 30.4585 18.4651L31.409 17.9531L33.0917 15.4002C32.7431 15.1642 32.3806 14.9511 32.0063 14.7621C30.4508 13.9581 27.8709 13 25.0245 13ZM20.8866 16.0776C20.2566 15.9552 19.6344 15.7931 19.0234 15.5922C20.4884 14.9168 22.672 14.2001 25.0239 14.2001C26.6533 14.2001 28.194 14.5441 29.4682 14.9802C27.975 15.1982 26.3816 15.5682 24.8633 16.0236C23.6688 16.3823 22.2725 16.3436 20.8866 16.0776V16.0776ZM31.1367 19.4539L30.9794 19.5365C27.3783 21.422 22.6026 21.422 19.0016 19.5365L18.8526 19.4579C13.4437 25.6191 9.31406 37 25.0245 37C40.7337 37 36.5033 25.4064 31.1367 19.4539ZM24.3566 25.001C24.0159 25.001 23.6892 25.1415 23.4483 25.3916C23.2075 25.6416 23.0721 25.9808 23.0721 26.3344C23.0721 26.6881 23.2075 27.0273 23.4483 27.2773C23.6892 27.5274 24.0159 27.6679 24.3566 27.6679V25.001ZM25.6411 23.6676V23.0008H24.3566V23.6676C23.6753 23.6676 23.0218 23.9485 22.5401 24.4487C22.0583 24.9488 21.7876 25.6271 21.7876 26.3344C21.7876 27.0417 22.0583 27.7201 22.5401 28.2202C23.0218 28.7204 23.6753 29.0013 24.3566 29.0013V31.6682C24.091 31.6683 23.8318 31.5829 23.6149 31.4237C23.398 31.2645 23.2339 31.0395 23.1453 30.7795C23.0886 30.6127 22.9704 30.4762 22.8167 30.3999C22.663 30.3237 22.4865 30.3139 22.3258 30.3728C22.1652 30.4317 22.0337 30.5544 21.9602 30.7139C21.8868 30.8735 21.8774 31.0568 21.9341 31.2235C22.1112 31.7435 22.4393 32.1938 22.8732 32.5122C23.307 32.8307 23.8253 33.0017 24.3566 33.0017V33.6684H25.6411V33.0017C26.3224 33.0017 26.9758 32.7207 27.4576 32.2206C27.9394 31.7204 28.21 31.0421 28.21 30.3348C28.21 29.6275 27.9394 28.9491 27.4576 28.449C26.9758 27.9489 26.3224 27.6679 25.6411 27.6679V25.001C26.1998 25.001 26.6757 25.371 26.853 25.8897C26.8793 25.9746 26.9217 26.0531 26.9778 26.1207C27.0338 26.1882 27.1023 26.2434 27.1793 26.283C27.2562 26.3226 27.34 26.3457 27.4258 26.3511C27.5115 26.3564 27.5974 26.3439 27.6783 26.3142C27.7593 26.2845 27.8337 26.2382 27.8971 26.1782C27.9606 26.1181 28.0118 26.0454 28.0477 25.9645C28.0836 25.8835 28.1036 25.7959 28.1063 25.7067C28.109 25.6176 28.0945 25.5289 28.0636 25.4457C27.8865 24.9257 27.5584 24.4754 27.1245 24.157C26.6907 23.8386 26.1724 23.6676 25.6411 23.6676ZM25.6411 29.0013V31.6682C25.9817 31.6682 26.3085 31.5277 26.5493 31.2777C26.7902 31.0276 26.9256 30.6884 26.9256 30.3348C26.9256 29.9811 26.7902 29.642 26.5493 29.3919C26.3085 29.1418 25.9817 29.0013 25.6411 29.0013Z" fill="url(#paint0_linear_72_38)"/>
<defs>
<linearGradient id="paint0_linear_72_38" x1="12" y1="7" x2="41" y2="43" gradientUnits="userSpaceOnUse">
<stop stop-color="#F5D9D1"/>
<stop offset="1" stop-color="#BDC1FA"/>
</linearGradient>
</defs>
</svg>
