<svg width="50" height="50" viewBox="0 0 50 50" fill="none" xmlns="http://www.w3.org/2000/svg">
<circle cx="25" cy="25" r="25" fill="#151515"/>
<path d="M37.904 17.723C37.7823 17.438 37.5493 17.2116 37.2562 17.0933C37.112 17.0335 36.9571 17.0018 36.8003 17H30.8021C30.4839 17 30.1788 17.1229 29.9538 17.3415C29.7288 17.5602 29.6024 17.8568 29.6024 18.1661C29.6024 18.4754 29.7288 18.772 29.9538 18.9907C30.1788 19.2093 30.4839 19.3322 30.8021 19.3322H33.9092L27.2031 25.8507L23.2563 22.0026C23.1448 21.8933 23.0121 21.8065 22.8659 21.7473C22.7197 21.6881 22.5629 21.6577 22.4045 21.6577C22.2462 21.6577 22.0894 21.6881 21.9432 21.7473C21.797 21.8065 21.6643 21.8933 21.5528 22.0026L14.3549 28.9992C14.2424 29.1076 14.1532 29.2366 14.0923 29.3787C14.0314 29.5208 14 29.6732 14 29.8271C14 29.9811 14.0314 30.1335 14.0923 30.2756C14.1532 30.4177 14.2424 30.5467 14.3549 30.6551C14.4664 30.7644 14.5991 30.8511 14.7453 30.9103C14.8914 30.9695 15.0482 31 15.2066 31C15.365 31 15.5218 30.9695 15.668 30.9103C15.8142 30.8511 15.9468 30.7644 16.0584 30.6551L22.4045 24.4747L26.3514 28.3229C26.4629 28.4322 26.5956 28.5189 26.7418 28.5781C26.888 28.6373 27.0448 28.6678 27.2031 28.6678C27.3615 28.6678 27.5183 28.6373 27.6645 28.5781C27.8107 28.5189 27.9434 28.4322 28.0549 28.3229L35.6007 20.9764V23.9966C35.6007 24.3059 35.7271 24.6025 35.9521 24.8212C36.177 25.0399 36.4822 25.1627 36.8003 25.1627C37.1185 25.1627 37.4237 25.0399 37.6486 24.8212C37.8736 24.6025 38 24.3059 38 23.9966V18.1661C37.9981 18.0137 37.9655 17.8632 37.904 17.723V17.723Z" fill="url(#paint0_linear_72_55)"/>
<defs>
<linearGradient id="paint0_linear_72_55" x1="11.5" y1="12" x2="40" y2="39" gradientUnits="userSpaceOnUse">
<stop stop-color="#F5D9D1"/>
<stop offset="1" stop-color="#BDC1FA"/>
</linearGradient>
</defs>
</svg>
