<svg width="249" height="97" viewBox="0 0 249 97" fill="none" xmlns="http://www.w3.org/2000/svg">
<path d="M14.3978 0C5.77208 0 0 7.17535 0 17.2208C0 27.2663 5.77208 34.4417 14.3978 34.4417C19.4565 34.4417 23.5423 31.9629 26.0716 27.8534V33.5285H35.7999V0.913226H26.0716V6.58827C23.5423 2.47876 19.4565 0 14.3978 0ZM26.0716 17.2208C26.0716 21.9174 22.5695 25.5703 17.8999 25.5703C13.2304 25.5703 9.72822 21.9174 9.72822 17.2208C9.72822 12.5242 13.2304 8.87134 17.8999 8.87134C22.5695 8.87134 26.0716 12.5242 26.0716 17.2208Z" fill="white"/>
<path d="M55.9454 9.39319C59.1233 9.39319 61.1986 11.4806 61.1986 15.851V33.5285H70.9269V16.2424C70.9269 11.8719 73.2616 9.39319 76.8287 9.39319C80.0065 9.39319 82.0819 11.4806 82.0819 15.851V33.5285H91.8101V15.3292C91.8101 4.04428 85.8435 0 79.4229 0C74.6884 0 70.7323 2.67445 69.1109 6.26212C66.7762 1.82645 63.0146 0 59.3827 0C55.6211 0 51.7947 2.02214 50.0436 5.93597V0.913226H40.3154V33.5285H50.0436V16.2424C50.0436 11.8719 52.3784 9.39319 55.9454 9.39319Z" fill="white"/>
<path d="M109.088 0C100.463 0 94.6906 7.17535 94.6906 17.2208C94.6906 27.2663 100.463 34.4417 109.088 34.4417C114.147 34.4417 118.233 31.9629 120.762 27.8534V33.5285H130.49V0.913226H120.762V6.58827C118.233 2.47876 114.147 0 109.088 0ZM120.762 17.2208C120.762 21.9174 117.26 25.5703 112.591 25.5703C107.921 25.5703 104.419 21.9174 104.419 17.2208C104.419 12.5242 107.921 8.87134 112.591 8.87134C117.26 8.87134 120.762 12.5242 120.762 17.2208Z" fill="white"/>
<path d="M160.818 0.913226H133.839V9.0018H158.743V9.13226L133.839 17.4165V33.5285H160.818V25.4399H135.914V25.3094L160.818 17.0251V0.913226Z" fill="white"/>
<path d="M164.206 33.5285H173.934V0.913226H164.206V33.5285Z" fill="white"/>
<path d="M194.672 9.39319C198.175 9.39319 200.639 11.4806 200.639 15.851V33.5285H210.367V15.3292C210.367 3.39198 203.233 0 198.11 0C194.089 0 190.068 2.02214 188.187 6.06643V0.913226H178.459V33.5285H188.187V16.2424C188.187 11.8719 190.976 9.39319 194.672 9.39319Z" fill="white"/>
<path d="M249 32.2238V0.913226H239.272V6.6535C236.937 2.73968 232.657 0 227.598 0C218.907 0 213.2 7.17535 213.2 16.699C213.2 26.2226 218.907 33.398 227.598 33.398C232.657 33.398 236.937 30.6583 239.272 26.7445V32.6152C239.272 38.225 234.732 39.9863 230.906 39.9863C227.079 39.9863 223.253 38.4207 220.658 35.6158L214.432 41.8127C218.778 45.9875 224.874 48.401 230.906 48.401C239.726 48.401 249 43.5087 249 32.2238ZM239.272 16.699C239.272 21.3956 235.77 24.918 231.1 24.918C226.431 24.918 222.928 21.3956 222.928 16.699C222.928 12.0024 226.431 8.47996 231.1 8.47996C235.77 8.47996 239.272 12.0024 239.272 16.699Z" fill="white"/>
<path d="M0 38.7306H210.778V47.9036H0V38.7306Z" fill="white"/>
<path d="M1.58655 96.802V73.3055H6.51146C7.5912 73.3055 8.50566 73.4705 9.25487 73.8005C10.0261 74.1305 10.6541 74.5705 11.1389 75.1206C11.6237 75.6706 11.9652 76.3086 12.1635 77.0346C12.3839 77.7386 12.4941 78.4756 12.4941 79.2456V80.1037C12.4941 80.7417 12.439 81.2807 12.3288 81.7207C12.2407 82.1607 12.0974 82.5457 11.8991 82.8757C11.5245 83.4917 10.9516 84.0197 10.1804 84.4597C10.9736 84.8337 11.5576 85.3838 11.9322 86.1098C12.3068 86.8358 12.4941 87.8258 12.4941 89.0798V90.3999C12.4941 92.4679 11.9873 94.0519 10.9736 95.152C9.98204 96.252 8.38447 96.802 6.18093 96.802H1.58655ZM4.95796 85.9118V93.4359H6.4123C7.0954 93.4359 7.62425 93.3369 7.99885 93.1389C8.39549 92.9409 8.69297 92.6659 8.89128 92.3139C9.0896 91.9619 9.2108 91.5439 9.25487 91.0599C9.29894 90.5759 9.32097 90.0478 9.32097 89.4758C9.32097 88.8818 9.28792 88.3648 9.22182 87.9248C9.15571 87.4848 9.0235 87.1108 8.82518 86.8028C8.60482 86.4948 8.30735 86.2748 7.93274 86.1428C7.55814 85.9888 7.06235 85.9118 6.44535 85.9118H4.95796ZM4.95796 76.4736V82.9417H6.47841C7.60221 82.9417 8.35142 82.6667 8.72602 82.1167C9.12266 81.5447 9.32097 80.7197 9.32097 79.6416C9.32097 78.5856 9.10062 77.7936 8.65991 77.2656C8.24124 76.7376 7.47 76.4736 6.3462 76.4736H4.95796Z" fill="white" fill-opacity="0.7"/>
<path d="M46.7299 73.3055V91.5219C46.7299 92.2919 46.5866 93.0069 46.3002 93.6669C46.0357 94.3049 45.6501 94.877 45.1433 95.383C44.6365 95.889 44.0525 96.285 43.3915 96.571C42.7304 96.857 42.0253 97 41.2761 97C40.5269 97 39.8218 96.857 39.1607 96.571C38.5217 96.285 37.9487 95.889 37.4419 95.383C36.9351 94.877 36.5385 94.3049 36.252 93.6669C35.9656 93.0069 35.8223 92.2919 35.8223 91.5219V73.3055H39.1937V91.1919C39.1937 92.0279 39.3921 92.6439 39.7887 93.0399C40.1853 93.4359 40.6811 93.6339 41.2761 93.6339C41.871 93.6339 42.3668 93.4359 42.7635 93.0399C43.1601 92.6439 43.3584 92.0279 43.3584 91.1919V73.3055H46.7299Z" fill="white" fill-opacity="0.7"/>
<path d="M80.9656 80.0706H77.5942V79.3116C77.5942 78.5416 77.4069 77.8816 77.0323 77.3316C76.6797 76.7596 76.0738 76.4736 75.2144 76.4736C74.7517 76.4736 74.377 76.5616 74.0906 76.7376C73.8041 76.9136 73.5728 77.1336 73.3965 77.3976C73.2202 77.6836 73.099 78.0136 73.0329 78.3876C72.9668 78.7396 72.9337 79.1136 72.9337 79.5096C72.9337 79.9716 72.9447 80.3567 72.9668 80.6647C73.0109 80.9727 73.099 81.2477 73.2312 81.4897C73.3634 81.7317 73.5507 81.9407 73.7931 82.1167C74.0575 82.2927 74.4101 82.4687 74.8508 82.6447L77.4289 83.6677C78.1781 83.9537 78.7841 84.2947 79.2469 84.6907C79.7096 85.0647 80.0732 85.5048 80.3376 86.0108C80.58 86.5388 80.7453 87.1438 80.8334 87.8258C80.9216 88.4858 80.9656 89.2448 80.9656 90.1029C80.9656 91.0929 80.8665 92.0169 80.6682 92.8749C80.4698 93.7109 80.1503 94.4259 79.7096 95.02C79.2469 95.636 78.6409 96.12 77.8917 96.472C77.1425 96.824 76.228 97 75.1483 97C74.333 97 73.5727 96.857 72.8676 96.571C72.1625 96.285 71.5565 95.889 71.0497 95.383C70.5429 94.877 70.1352 94.2939 69.8267 93.6339C69.5403 92.9519 69.397 92.2149 69.397 91.4229V90.1689H72.7685V91.2249C72.7685 91.8409 72.9447 92.4019 73.2973 92.9079C73.6719 93.3919 74.2889 93.6339 75.1483 93.6339C75.7212 93.6339 76.1619 93.5569 76.4704 93.4029C76.8009 93.2269 77.0543 92.9849 77.2306 92.6769C77.4069 92.3689 77.5061 92.0059 77.5281 91.5879C77.5722 91.1479 77.5942 90.6639 77.5942 90.1359C77.5942 89.5199 77.5722 89.0138 77.5281 88.6178C77.484 88.2218 77.3959 87.9028 77.2637 87.6608C77.1094 87.4188 76.9001 87.2208 76.6357 87.0668C76.3933 86.9128 76.0628 86.7478 75.6441 86.5718L73.2312 85.5818C71.7769 84.9878 70.7963 84.2067 70.2895 83.2387C69.8047 82.2487 69.5623 81.0167 69.5623 79.5426C69.5623 78.6626 69.6835 77.8266 69.9259 77.0346C70.1683 76.2426 70.5319 75.5606 71.0166 74.9885C71.4794 74.4165 72.0633 73.9655 72.7685 73.6355C73.4956 73.2835 74.355 73.1075 75.3466 73.1075C76.1839 73.1075 76.9442 73.2615 77.6273 73.5695C78.3324 73.8775 78.9384 74.2845 79.4452 74.7905C80.4588 75.8466 80.9656 77.0566 80.9656 78.4206V80.0706Z" fill="white" fill-opacity="0.7"/>
<path d="M103.747 96.802V73.3055H107.119V96.802H103.747Z" fill="white" fill-opacity="0.7"/>
<path d="M130.425 96.802V73.3055H133.664L138.754 87.4628H138.82V73.3055H142.192V96.802H139.018L133.862 82.6777H133.796V96.802H130.425Z" fill="white" fill-opacity="0.7"/>
<path d="M165.406 96.802V73.3055H175.454V76.4736H168.777V83.3707H174.595V86.5388H168.777V93.4359H175.454V96.802H165.406Z" fill="white" fill-opacity="0.7"/>
<path d="M208.709 80.0706H205.338V79.3116C205.338 78.5416 205.151 77.8816 204.776 77.3316C204.423 76.7596 203.818 76.4736 202.958 76.4736C202.495 76.4736 202.121 76.5616 201.834 76.7376C201.548 76.9136 201.317 77.1336 201.14 77.3976C200.964 77.6836 200.843 78.0136 200.777 78.3876C200.711 78.7396 200.677 79.1136 200.677 79.5096C200.677 79.9716 200.689 80.3567 200.711 80.6647C200.755 80.9727 200.843 81.2477 200.975 81.4897C201.107 81.7317 201.294 81.9407 201.537 82.1167C201.801 82.2927 202.154 82.4687 202.595 82.6447L205.173 83.6677C205.922 83.9537 206.528 84.2947 206.991 84.6907C207.453 85.0647 207.817 85.5048 208.081 86.0108C208.324 86.5388 208.489 87.1438 208.577 87.8258C208.665 88.4858 208.709 89.2448 208.709 90.1029C208.709 91.0929 208.61 92.0169 208.412 92.8749C208.214 93.7109 207.894 94.4259 207.453 95.02C206.991 95.636 206.385 96.12 205.635 96.472C204.886 96.824 203.972 97 202.892 97C202.077 97 201.317 96.857 200.611 96.571C199.906 96.285 199.3 95.889 198.793 95.383C198.287 94.877 197.879 94.2939 197.57 93.6339C197.284 92.9519 197.141 92.2149 197.141 91.4229V90.1689H200.512V91.2249C200.512 91.8409 200.688 92.4019 201.041 92.9079C201.416 93.3919 202.033 93.6339 202.892 93.6339C203.465 93.6339 203.906 93.5569 204.214 93.4029C204.545 93.2269 204.798 92.9849 204.974 92.6769C205.151 92.3689 205.25 92.0059 205.272 91.5879C205.316 91.1479 205.338 90.6639 205.338 90.1359C205.338 89.5199 205.316 89.0138 205.272 88.6178C205.228 88.2218 205.14 87.9028 205.007 87.6608C204.853 87.4188 204.644 87.2208 204.379 87.0668C204.137 86.9128 203.807 86.7478 203.388 86.5718L200.975 85.5818C199.521 84.9878 198.54 84.2067 198.033 83.2387C197.548 82.2487 197.306 81.0167 197.306 79.5426C197.306 78.6626 197.427 77.8266 197.67 77.0346C197.912 76.2426 198.276 75.5606 198.76 74.9885C199.223 74.4165 199.807 73.9655 200.512 73.6355C201.239 73.2835 202.099 73.1075 203.09 73.1075C203.928 73.1075 204.688 73.2615 205.371 73.5695C206.076 73.8775 206.682 74.2845 207.189 74.7905C208.203 75.8466 208.709 77.0566 208.709 78.4206V80.0706Z" fill="white" fill-opacity="0.7"/>
<path d="M242.3 80.0706H238.928V79.3116C238.928 78.5416 238.741 77.8816 238.366 77.3316C238.014 76.7596 237.408 76.4736 236.548 76.4736C236.086 76.4736 235.711 76.5616 235.425 76.7376C235.138 76.9136 234.907 77.1336 234.73 77.3976C234.554 77.6836 234.433 78.0136 234.367 78.3876C234.301 78.7396 234.268 79.1136 234.268 79.5096C234.268 79.9716 234.279 80.3567 234.301 80.6647C234.345 80.9727 234.433 81.2477 234.565 81.4897C234.697 81.7317 234.885 81.9407 235.127 82.1167C235.391 82.2927 235.744 82.4687 236.185 82.6447L238.763 83.6677C239.512 83.9537 240.118 84.2947 240.581 84.6907C241.044 85.0647 241.407 85.5048 241.672 86.0108C241.914 86.5388 242.079 87.1438 242.167 87.8258C242.256 88.4858 242.3 89.2448 242.3 90.1029C242.3 91.0929 242.2 92.0169 242.002 92.8749C241.804 93.7109 241.484 94.4259 241.044 95.02C240.581 95.636 239.975 96.12 239.226 96.472C238.476 96.824 237.562 97 236.482 97C235.667 97 234.907 96.857 234.202 96.571C233.496 96.285 232.89 95.889 232.384 95.383C231.877 94.877 231.469 94.2939 231.161 93.6339C230.874 92.9519 230.731 92.2149 230.731 91.4229V90.1689H234.102V91.2249C234.102 91.8409 234.279 92.4019 234.631 92.9079C235.006 93.3919 235.623 93.6339 236.482 93.6339C237.055 93.6339 237.496 93.5569 237.804 93.4029C238.135 93.2269 238.388 92.9849 238.565 92.6769C238.741 92.3689 238.84 92.0059 238.862 91.5879C238.906 91.1479 238.928 90.6639 238.928 90.1359C238.928 89.5199 238.906 89.0138 238.862 88.6178C238.818 88.2218 238.73 87.9028 238.598 87.6608C238.443 87.4188 238.234 87.2208 237.97 87.0668C237.727 86.9128 237.397 86.7478 236.978 86.5718L234.565 85.5818C233.111 84.9878 232.13 84.2067 231.623 83.2387C231.139 82.2487 230.896 81.0167 230.896 79.5426C230.896 78.6626 231.017 77.8266 231.26 77.0346C231.502 76.2426 231.866 75.5606 232.351 74.9885C232.813 74.4165 233.397 73.9655 234.102 73.6355C234.83 73.2835 235.689 73.1075 236.681 73.1075C237.518 73.1075 238.278 73.2615 238.961 73.5695C239.666 73.8775 240.272 74.2845 240.779 74.7905C241.793 75.8466 242.3 77.0566 242.3 78.4206V80.0706Z" fill="white" fill-opacity="0.7"/>
</svg>
