<svg width="127" height="54" viewBox="0 0 127 54" fill="none" xmlns="http://www.w3.org/2000/svg">
<path d="M7.36 26.816C7.584 26.848 7.808 26.848 8.032 26.848C9.952 26.848 11.968 26.208 13.536 24.768C14.336 25.792 15.072 26.336 15.68 26.336H16.288C16.832 26.336 17.28 25.888 17.28 25.344V10.176C17.28 9.536 16.736 8.992 16.128 8.992H15.392C14.432 8.992 13.6 9.472 13.056 10.176C11.392 8.896 9.28 8.352 7.36 8.512C3.84 8.8 0.256 11.456 0.0320001 16.704H0V18.208C0.064 23.744 3.744 26.528 7.36 26.816ZM8.672 13.056C10.816 13.056 12.512 14.4 12.512 16.64V18.688C12.512 20.928 10.816 22.272 8.672 22.272C6.72 22.272 4.736 21.056 4.736 18.688V16.64C4.736 14.272 6.72 13.056 8.672 13.056Z" fill="white"/>
<path d="M38.144 8.48C36.096 8.448 34.144 9.248 32.672 10.656C32.64 10.72 32.576 10.784 32.512 10.848C31.136 9.408 29.248 8.544 27.072 8.48C22.304 8.416 19.04 12.544 19.04 17.088V25.376C19.04 25.888 19.488 26.336 20 26.336H22.816C23.36 26.336 23.776 25.888 23.776 25.376V16.896C23.776 15.712 24.192 14.688 24.896 14.016C25.504 13.44 26.304 13.184 27.2 13.248C29.344 13.408 30.112 15.36 30.112 17.024V25.376C30.112 25.888 30.528 26.336 31.072 26.336H33.888C34.4 26.336 34.848 25.888 34.848 25.376V16.864C34.848 15.712 35.264 14.688 35.968 14.016C36.576 13.44 37.344 13.184 38.24 13.248C40.384 13.408 41.152 15.36 41.152 17.024V25.376C41.152 25.888 41.6 26.336 42.144 26.336H44.928C45.472 26.336 45.92 25.888 45.92 25.376V16.896C45.92 12.16 42.56 8.576 38.144 8.48Z" fill="white"/>
<path d="M54.565 26.816C54.789 26.848 55.013 26.848 55.237 26.848C57.157 26.848 59.173 26.208 60.741 24.768C61.541 25.792 62.277 26.336 62.885 26.336H63.493C64.037 26.336 64.485 25.888 64.485 25.344V10.176C64.485 9.536 63.941 8.992 63.333 8.992H62.597C61.637 8.992 60.805 9.472 60.261 10.176C58.597 8.896 56.485 8.352 54.565 8.512C51.045 8.8 47.461 11.456 47.237 16.704H47.205V18.208C47.269 23.744 50.949 26.528 54.565 26.816ZM55.877 13.056C58.021 13.056 59.717 14.4 59.717 16.64V18.688C59.717 20.928 58.021 22.272 55.877 22.272C53.925 22.272 51.941 21.056 51.941 18.688V16.64C51.941 14.272 53.925 13.056 55.877 13.056Z" fill="white"/>
<path d="M79.205 22.08H71.429L79.077 13.888C79.333 13.6 79.461 13.248 79.461 12.864V9.984C79.461 9.44 79.013 8.992 78.501 8.992H67.909C67.365 8.992 66.949 9.44 66.949 9.984V12.288C66.949 12.832 67.365 13.28 67.909 13.28H73.573L66.309 21.376C66.053 21.632 65.925 21.984 65.925 22.336V25.376C65.925 25.888 66.373 26.336 66.885 26.336H79.205C79.749 26.336 80.197 25.888 80.197 25.376V23.04C80.197 22.496 79.749 22.08 79.205 22.08Z" fill="white"/>
<path d="M86.6008 6.08C88.2648 6.08 89.6728 4.736 89.6728 3.04C89.6728 1.376 88.2648 0 86.6008 0C84.9048 0 83.4968 1.376 83.4968 3.04C83.4968 4.736 84.9048 6.08 86.6008 6.08ZM87.9768 26.336C88.5208 26.336 88.9688 25.888 88.9688 25.376V9.984C88.9688 9.44 88.5208 8.992 87.9768 8.992H82.3128C81.8008 8.992 81.3528 9.44 81.3528 9.984V12.288C81.3528 12.832 81.8008 13.248 82.3128 13.248H84.2327V25.376C84.2327 25.888 84.6488 26.336 85.1928 26.336H87.9768Z" fill="white"/>
<path d="M99.9482 8.48C95.7242 8.48 91.2122 11.296 91.2122 17.472V25.376C91.2122 25.888 91.6602 26.336 92.1722 26.336H94.9883C95.5323 26.336 95.9482 25.888 95.9482 25.376V16.768C95.9482 14.304 97.9642 13.184 99.7882 13.184C101.74 13.184 103.724 14.432 103.724 16.768V25.376C103.724 25.888 104.172 26.336 104.716 26.336H107.5C108.044 26.336 108.492 25.888 108.492 25.376V17.28C108.492 11.232 104.044 8.48 99.9482 8.48Z" fill="white"/>
<path d="M117.677 25.248C119.277 25.248 120.845 24.8 122.189 23.904V23.936C122.189 26.592 119.949 27.744 117.613 27.744C116.301 27.744 115.085 27.392 114.349 26.816C114.061 26.624 113.709 26.528 113.357 26.624C113.005 26.72 112.717 26.944 112.589 27.296L111.789 29.152C111.597 29.632 111.725 30.176 112.109 30.496C113.549 31.68 115.629 32.288 117.741 32.288C123.629 32.288 126.925 28.64 126.925 23.424V10.016C126.925 9.472 126.509 9.056 125.965 9.056H125.037C124.173 9.056 123.373 9.44 122.861 10.08C121.581 9.056 119.949 8.544 117.965 8.544C111.949 8.544 109.709 12.736 109.709 16.8C109.709 20.96 112.237 25.248 117.677 25.248ZM118.317 13.152C120.141 13.152 122.157 14.4 122.157 16.864C122.157 19.328 120.173 20.576 118.317 20.576C115.885 20.576 114.381 18.976 114.381 16.864C114.381 14.752 115.789 13.152 118.317 13.152Z" fill="white"/>
<path d="M55.696 53.848C55.92 53.848 56.144 53.848 56.368 53.816C60.016 53.528 63.696 50.744 63.728 45.208H63.76V43.736H63.728C63.504 38.456 59.92 35.832 56.368 35.512C54.672 35.384 52.816 35.8 51.216 36.792V29.208C51.216 28.664 50.8 28.248 50.256 28.248H47.44C46.928 28.248 46.48 28.664 46.48 29.208V52.344C46.48 52.888 46.928 53.336 47.44 53.336H48.08C48.688 53.336 49.392 52.824 50.224 51.8C51.792 53.208 53.808 53.848 55.696 53.848ZM55.056 40.184C57.2 40.184 58.992 41.56 58.992 43.8V45.56C58.992 47.8 57.2 49.176 55.056 49.176C53.232 49.176 51.216 48.024 51.216 45.56V43.768C51.216 41.304 53.232 40.184 55.056 40.184Z" fill="white"/>
<path d="M72.4 53.816C72.624 53.848 72.848 53.848 73.072 53.848C74.992 53.848 77.008 53.208 78.576 51.768C79.376 52.792 80.112 53.336 80.72 53.336H81.328C81.872 53.336 82.32 52.888 82.32 52.344V37.176C82.32 36.536 81.776 35.992 81.168 35.992H80.432C79.472 35.992 78.64 36.472 78.096 37.176C76.432 35.896 74.32 35.352 72.4 35.512C68.88 35.8 65.296 38.456 65.072 43.704H65.04V45.208C65.104 50.744 68.784 53.528 72.4 53.816ZM73.712 40.056C75.856 40.056 77.552 41.4 77.552 43.64V45.688C77.552 47.928 75.856 49.272 73.712 49.272C71.76 49.272 69.776 48.056 69.776 45.688V43.64C69.776 41.272 71.76 40.056 73.712 40.056Z" fill="white"/>
<path d="M93.441 35.48C89.217 35.48 84.705 38.296 84.705 44.472V52.376C84.705 52.888 85.153 53.336 85.665 53.336H88.481C89.025 53.336 89.441 52.888 89.441 52.376V43.768C89.441 41.304 91.457 40.184 93.281 40.184C95.233 40.184 97.217 41.432 97.217 43.768V52.376C97.217 52.888 97.665 53.336 98.209 53.336H100.993C101.537 53.336 101.985 52.888 101.985 52.376V44.28C101.985 38.232 97.537 35.48 93.441 35.48Z" fill="white"/>
<path d="M113.836 42.616L119.116 37.848C119.436 37.56 119.532 37.144 119.404 36.76C119.276 36.344 118.764 35.992 118.348 35.992H115.18C114.828 35.992 114.476 36.12 114.22 36.376L108.492 41.432V23.836C108.492 23.292 108.001 23.2109 107.457 23.2109H104.641C104.129 23.2109 103.756 23.292 103.756 23.836V52.376C103.756 52.888 104.204 53.336 104.716 53.336H107.532C108.076 53.336 108.492 52.888 108.492 52.376V47.448L110.412 45.688L115.244 52.696C115.5 53.112 115.948 53.336 116.428 53.336H119.756C120.236 53.336 120.652 53.048 120.844 52.6C121.004 52.216 120.908 51.768 120.652 51.416L113.836 42.616Z" fill="white"/>
</svg>
