<svg width="140" height="27" viewBox="0 0 140 27" fill="none" xmlns="http://www.w3.org/2000/svg">
<path d="M8.07817 0C3.23854 0 0 4.0027 0 9.60647C0 15.2102 3.23854 19.2129 8.07817 19.2129C10.9164 19.2129 13.2089 17.8302 14.628 15.5377V18.7035H20.0863V0.509434H14.628V3.6752C13.2089 1.38275 10.9164 0 8.07817 0ZM14.628 9.60647C14.628 12.2264 12.6631 14.2641 10.0431 14.2641C7.42318 14.2641 5.45822 12.2264 5.45822 9.60647C5.45822 6.98652 7.42318 4.94879 10.0431 4.94879C12.6631 4.94879 14.628 6.98652 14.628 9.60647Z" fill="white"/>
<path d="M31.3893 5.23989C33.1723 5.23989 34.3368 6.40431 34.3368 8.84232V18.7035H39.795V9.06065C39.795 6.62264 41.105 5.23989 43.1063 5.23989C44.8893 5.23989 46.0537 6.40431 46.0537 8.84232V18.7035H51.512V8.55121C51.512 2.25606 48.1643 0 44.5618 0C41.9055 0 39.6858 1.49191 38.7761 3.49326C37.4661 1.01887 35.3556 0 33.3179 0C31.2074 0 29.0605 1.12803 28.078 3.31132V0.509434H22.6198V18.7035H28.078V9.06065C28.078 6.62264 29.388 5.23989 31.3893 5.23989Z" fill="white"/>
<path d="M61.2063 0C56.3666 0 53.1281 4.0027 53.1281 9.60647C53.1281 15.2102 56.3666 19.2129 61.2063 19.2129C64.0445 19.2129 66.337 17.8302 67.7561 15.5377V18.7035H73.2144V0.509434H67.7561V3.6752C66.337 1.38275 64.0445 0 61.2063 0ZM67.7561 9.60647C67.7561 12.2264 65.7912 14.2641 63.1712 14.2641C60.5513 14.2641 58.5863 12.2264 58.5863 9.60647C58.5863 6.98652 60.5513 4.94879 63.1712 4.94879C65.7912 4.94879 67.7561 6.98652 67.7561 9.60647Z" fill="white"/>
<path d="M90.2304 0.509434H75.0929V5.02156H89.066V5.09434L75.0929 9.71563V18.7035H90.2304V14.1914H76.2573V14.1186L90.2304 9.4973V0.509434Z" fill="white"/>
<path d="M92.1311 18.7035H97.5893V0.509434H92.1311V18.7035Z" fill="white"/>
<path d="M109.225 5.23989C111.19 5.23989 112.573 6.40431 112.573 8.84232V18.7035H118.031V8.55121C118.031 1.89218 114.028 0 111.154 0C108.897 0 106.641 1.12803 105.586 3.3841V0.509434H100.128V18.7035H105.586V9.06065C105.586 6.62264 107.151 5.23989 109.225 5.23989Z" fill="white"/>
<path d="M139.707 17.9757V0.509434H134.248V3.71159C132.938 1.5283 130.537 0 127.699 0C122.822 0 119.62 4.0027 119.62 9.31536C119.62 14.628 122.822 18.6307 127.699 18.6307C130.537 18.6307 132.938 17.1024 134.248 14.9191V18.1941C134.248 21.3235 131.701 22.3059 129.554 22.3059C127.407 22.3059 125.26 21.4326 123.805 19.8679L120.312 23.3248C122.75 25.6536 126.17 27 129.554 27C134.503 27 139.707 24.2709 139.707 17.9757ZM134.248 9.31536C134.248 11.9353 132.283 13.9003 129.663 13.9003C127.044 13.9003 125.079 11.9353 125.079 9.31536C125.079 6.69542 127.044 4.73046 129.663 4.73046C132.283 4.73046 134.248 6.69542 134.248 9.31536Z" fill="white"/>
<rect y="21.6055" width="118.261" height="5.11708" fill="url(#paint0_linear_5_7)"/>
<defs>
<linearGradient id="paint0_linear_5_7" x1="1.25097e-07" y1="24" x2="118" y2="24" gradientUnits="userSpaceOnUse">
<stop stop-color="#F5D9D1"/>
<stop offset="1" stop-color="#BDC1FA"/>
</linearGradient>
</defs>
</svg>
