<svg width="140" height="28" viewBox="0 0 140 28" fill="none" xmlns="http://www.w3.org/2000/svg">
<path d="M8.09513 0C3.24535 0 0 4.0111 0 9.62665C0 15.2422 3.24535 19.2533 8.09513 19.2533C10.9394 19.2533 13.2366 17.8676 14.6588 15.5704V18.7428H20.1284V0.510504H14.6588V3.68292C13.2366 1.38565 10.9394 0 8.09513 0ZM14.6588 9.62665C14.6588 12.2521 12.6897 14.2941 10.0642 14.2941C7.43877 14.2941 5.46969 12.2521 5.46969 9.62665C5.46969 7.0012 7.43877 4.95918 10.0642 4.95918C12.6897 4.95918 14.6588 7.0012 14.6588 9.62665Z" fill="#151515"/>
<path d="M31.4552 5.2509C33.242 5.2509 34.4089 6.41776 34.4089 8.86089V18.7428H39.8786V9.07968C39.8786 6.63655 41.1913 5.2509 43.1968 5.2509C44.9836 5.2509 46.1505 6.41776 46.1505 8.86089V18.7428H51.6201V8.56917C51.6201 2.2608 48.2654 0 44.6554 0C41.9935 0 39.7692 1.49505 38.8576 3.5006C37.5448 1.02101 35.4299 0 33.3879 0C31.2729 0 29.1215 1.1304 28.137 3.31828V0.510504H22.6673V18.7428H28.137V9.07968C28.137 6.63655 29.4497 5.2509 31.4552 5.2509Z" fill="#151515"/>
<path d="M61.3348 0C56.485 0 53.2397 4.0111 53.2397 9.62665C53.2397 15.2422 56.485 19.2533 61.3348 19.2533C64.1791 19.2533 66.4763 17.8676 67.8984 15.5704V18.7428H73.3681V0.510504H67.8984V3.68292C66.4763 1.38565 64.1791 0 61.3348 0ZM67.8984 9.62665C67.8984 12.2521 65.9294 14.2941 63.3039 14.2941C60.6785 14.2941 58.7094 12.2521 58.7094 9.62665C58.7094 7.0012 60.6785 4.95918 63.3039 4.95918C65.9294 4.95918 67.8984 7.0012 67.8984 9.62665Z" fill="#151515"/>
<path d="M90.4199 0.510504H75.2506V5.03211H89.253V5.10504L75.2506 9.73604V18.7428H90.4199V14.2212H76.4175V14.1483L90.4199 9.51725V0.510504Z" fill="#151515"/>
<path d="M92.3246 18.7428H97.7943V0.510504H92.3246V18.7428Z" fill="#151515"/>
<path d="M109.454 5.2509C111.423 5.2509 112.809 6.41776 112.809 8.86089V18.7428H118.279V8.56917C118.279 1.89616 114.268 0 111.387 0C109.126 0 106.865 1.1304 105.808 3.3912V0.510504H100.338V18.7428H105.808V9.07968C105.808 6.63655 107.376 5.2509 109.454 5.2509Z" fill="#151515"/>
<path d="M140 18.0135V0.510504H134.53V3.71938C133.218 1.53151 130.811 0 127.967 0C123.08 0 119.872 4.0111 119.872 9.33493C119.872 14.6588 123.08 18.6699 127.967 18.6699C130.811 18.6699 133.218 17.1383 134.53 14.9505V18.2323C134.53 21.3682 131.978 22.3528 129.826 22.3528C127.675 22.3528 125.524 21.4776 124.065 19.9097L120.564 23.3738C123.008 25.7075 126.435 27.0567 129.826 27.0567C134.786 27.0567 140 24.3219 140 18.0135ZM134.53 9.33493C134.53 11.9604 132.561 13.9295 129.936 13.9295C127.31 13.9295 125.341 11.9604 125.341 9.33493C125.341 6.70948 127.31 4.74039 129.936 4.74039C132.561 4.74039 134.53 6.70948 134.53 9.33493Z" fill="#151515"/>
<rect y="21.6508" width="118.51" height="5.12783" fill="url(#paint0_linear_73_2)"/>
<defs>
<linearGradient id="paint0_linear_73_2" x1="1.2536e-07" y1="24.0503" x2="118.248" y2="24.0504" gradientUnits="userSpaceOnUse">
<stop stop-color="#F5D9D1"/>
<stop offset="1" stop-color="#BDC1FA"/>
</linearGradient>
</defs>
</svg>
