<svg width="50" height="50" viewBox="0 0 50 50" fill="none" xmlns="http://www.w3.org/2000/svg">
<circle cx="25" cy="25" r="25" fill="#151515"/>
<path d="M8 32.2871H15.2656V29.9824H10.9395V29.9141L15.1484 20.0703V18.1953H8.04883V20.5H12.209V20.5684L8 30.3926V32.2871Z" fill="url(#paint0_linear_72_38)"/>
<path d="M16.8867 32.2871H23.2637V29.9824H19.6504V26.2324H23.0684V24.0742H19.6504V20.5H23.2637V18.1953H16.8867V32.2871Z" fill="url(#paint1_linear_72_38)"/>
<path d="M24.9531 32.2871H27.7168V26.8574H28.293C28.3385 26.8574 28.3809 26.8574 28.4199 26.8574C28.4655 26.8574 28.5111 26.8574 28.5566 26.8574L29.9824 32.2871H32.8828L31.1641 26.3691C31.6133 26.1608 31.9681 25.832 32.2285 25.3828C32.4954 24.9271 32.6289 24.3672 32.6289 23.7031V21.5059C32.6289 20.7962 32.502 20.1973 32.248 19.709C31.9941 19.2142 31.6165 18.8398 31.1152 18.5859C30.6204 18.3255 30.0117 18.1953 29.2891 18.1953H24.9531V32.2871ZM27.7168 24.8652V20.3535H28.6445C29.0221 20.3535 29.3118 20.4512 29.5137 20.6465C29.7155 20.8353 29.8164 21.1185 29.8164 21.4961V23.7129C29.8164 24.097 29.7155 24.3867 29.5137 24.582C29.3118 24.7708 29.0221 24.8652 28.6445 24.8652H27.7168Z" fill="url(#paint2_linear_72_38)"/>
<path d="M38.3418 32.4824C39.1556 32.4824 39.8717 32.3132 40.4902 31.9746C41.1152 31.6296 41.6035 31.1445 41.9551 30.5195C42.3066 29.888 42.4824 29.1491 42.4824 28.3027V22.1797C42.4824 21.3333 42.3066 20.5977 41.9551 19.9727C41.6035 19.3411 41.1152 18.8561 40.4902 18.5176C39.8717 18.1725 39.1556 18 38.3418 18C37.528 18 36.8086 18.1725 36.1836 18.5176C35.5651 18.8561 35.0801 19.3379 34.7285 19.9629C34.377 20.5879 34.2012 21.3268 34.2012 22.1797V28.3027C34.2012 29.1491 34.377 29.888 34.7285 30.5195C35.0801 31.1445 35.5651 31.6296 36.1836 31.9746C36.8086 32.3132 37.528 32.4824 38.3418 32.4824ZM38.3418 30.1191C38.0684 30.1191 37.8307 30.054 37.6289 29.9238C37.4336 29.7871 37.2839 29.6016 37.1797 29.3672C37.0755 29.1328 37.0234 28.8496 37.0234 28.5176V21.9551C37.0234 21.6296 37.0755 21.3496 37.1797 21.1152C37.2839 20.8743 37.4336 20.6888 37.6289 20.5586C37.8307 20.4284 38.0684 20.3633 38.3418 20.3633C38.6152 20.3633 38.8496 20.4284 39.0449 20.5586C39.2467 20.6888 39.3997 20.8743 39.5039 21.1152C39.6081 21.3496 39.6602 21.6296 39.6602 21.9551V28.5176C39.6602 28.8496 39.6048 29.1328 39.4941 29.3672C39.39 29.6016 39.2402 29.7871 39.0449 29.9238C38.8496 30.054 38.6152 30.1191 38.3418 30.1191Z" fill="url(#paint3_linear_72_38)"/>
<defs>
<linearGradient id="paint0_linear_72_38" x1="44" y1="43.5" x2="6" y2="5" gradientUnits="userSpaceOnUse">
<stop stop-color="#BDC1FA"/>
<stop offset="1" stop-color="#F5D9D1"/>
</linearGradient>
<linearGradient id="paint1_linear_72_38" x1="44" y1="43.5" x2="6" y2="5" gradientUnits="userSpaceOnUse">
<stop stop-color="#BDC1FA"/>
<stop offset="1" stop-color="#F5D9D1"/>
</linearGradient>
<linearGradient id="paint2_linear_72_38" x1="44" y1="43.5" x2="6" y2="5" gradientUnits="userSpaceOnUse">
<stop stop-color="#BDC1FA"/>
<stop offset="1" stop-color="#F5D9D1"/>
</linearGradient>
<linearGradient id="paint3_linear_72_38" x1="44" y1="43.5" x2="6" y2="5" gradientUnits="userSpaceOnUse">
<stop stop-color="#BDC1FA"/>
<stop offset="1" stop-color="#F5D9D1"/>
</linearGradient>
</defs>
</svg>
