<svg width="293" height="41" viewBox="0 0 293 41" fill="none" xmlns="http://www.w3.org/2000/svg">
<path d="M0 27.5914H20.3677V20.9285H0V27.5914ZM6.95282 37.2124H13.3876V11.3075H6.95282V37.2124Z" fill="#D9D9D9"/>
<path d="M30.2925 40.4471H37.9269V0.552933H30.2652L23.9122 5.72286V13.0769L30.0744 8.12812H30.2925V40.4471Z" fill="#D9D9D9"/>
<path d="M54.8591 41C57.0222 41 58.9126 40.5484 60.5304 39.6453C62.1664 38.7238 63.4388 37.4336 64.3477 35.7748C65.2565 34.116 65.711 32.1623 65.711 29.9137V11.0863C65.711 8.85615 65.2565 6.91167 64.3477 5.25287C63.4388 3.57563 62.1664 2.28546 60.5304 1.38233C58.9126 0.460778 57.0222 0 54.8591 0C52.6597 0 50.7419 0.460778 49.106 1.38233C47.47 2.28546 46.1976 3.57563 45.2888 5.25287C44.3981 6.91167 43.9527 8.85615 43.9527 11.0863V29.9137C43.9527 32.1623 44.3981 34.116 45.2888 35.7748C46.1976 37.4336 47.47 38.7238 49.106 39.6453C50.7419 40.5484 52.6597 41 54.8591 41ZM54.8318 34.6689C54.1775 34.6689 53.6231 34.5122 53.1686 34.1989C52.7142 33.8672 52.3688 33.4064 52.1325 32.8166C51.8962 32.2268 51.7781 31.5264 51.7781 30.7154V10.2846C51.7781 9.47359 51.8962 8.77321 52.1325 8.18341C52.3688 7.59362 52.7142 7.14205 53.1686 6.82873C53.6231 6.49697 54.1775 6.33109 54.8318 6.33109C55.4862 6.33109 56.0406 6.49697 56.4951 6.82873C56.9495 7.14205 57.2949 7.59362 57.5312 8.18341C57.7675 8.77321 57.8856 9.47359 57.8856 10.2846V30.7154C57.8856 31.508 57.7675 32.1991 57.5312 32.7889C57.2949 33.3787 56.9495 33.8395 56.4951 34.1713C56.0406 34.503 55.4862 34.6689 54.8318 34.6689Z" fill="#D9D9D9"/>
<path d="M83.2702 27.619H91.041C93.0951 27.619 94.831 27.2688 96.2488 26.5684C97.6667 25.8496 98.73 24.7991 99.439 23.4167C100.166 22.0344 100.53 20.3295 100.53 18.3021V9.9528C100.53 7.92538 100.166 6.2205 99.439 4.83817C98.73 3.4374 97.6667 2.37761 96.2488 1.6588C94.831 0.921555 93.0951 0.552933 91.041 0.552933H83.2702V6.82873H89.0779C90.2231 6.82873 91.1137 7.12362 91.75 7.71342C92.4043 8.28478 92.7315 9.1234 92.7315 10.2293V18.0533C92.7315 19.1591 92.4043 19.9978 91.75 20.5691C91.1137 21.1405 90.2231 21.4262 89.0779 21.4262H83.2702V27.619ZM79.4257 40.4471H87.142V0.552933H79.4257V40.4471Z" fill="#D9D9D9"/>
<path d="M101.511 40.4471H109.364L113.781 8.45988H116.098V0.552933H108.791L101.511 40.4471ZM106.664 32.4295H121.061L119.997 26.5131H107.701L106.664 32.4295ZM118.416 40.4471H126.241L118.961 0.552933H113.972V8.45988L118.416 40.4471Z" fill="#D9D9D9"/>
<path d="M130.113 40.4471H137.829V25.0755H139.438C139.565 25.0755 139.684 25.0755 139.793 25.0755C139.92 25.0755 140.047 25.0755 140.174 25.0755L144.155 40.4471H152.253L147.454 23.6932C148.709 23.1034 149.699 22.1726 150.426 20.9009C151.172 19.6107 151.544 18.0256 151.544 16.1457V9.92515C151.544 7.91616 151.19 6.2205 150.481 4.83817C149.772 3.4374 148.718 2.37761 147.318 1.6588C145.936 0.921555 144.237 0.552933 142.219 0.552933H130.113V40.4471ZM137.829 19.4356V6.66285H140.42C141.474 6.66285 142.283 6.93931 142.846 7.49225C143.41 8.02675 143.692 8.8285 143.692 9.89751V16.1733C143.692 17.2607 143.41 18.0809 142.846 18.6339C142.283 19.1684 141.474 19.4356 140.42 19.4356H137.829Z" fill="#D9D9D9"/>
<path d="M167.386 41C169.585 41 171.503 40.5392 173.139 39.6177C174.793 38.6777 176.074 37.3599 176.983 35.6642C177.892 33.9501 178.365 31.9227 178.401 29.5819V25.2138H170.903V30.1349C170.867 31.0011 170.712 31.7476 170.44 32.3742C170.185 32.9825 169.812 33.4525 169.322 33.7842C168.831 34.116 168.24 34.2819 167.549 34.2819C166.804 34.2819 166.168 34.1068 165.641 33.7566C165.114 33.388 164.705 32.8811 164.414 32.236C164.141 31.5725 164.005 30.8076 164.005 29.9413V11.0587C164.005 10.2108 164.141 9.46437 164.414 8.81929C164.705 8.15577 165.104 7.63969 165.613 7.27107C166.141 6.90245 166.777 6.71814 167.522 6.71814C168.231 6.71814 168.831 6.89323 169.322 7.24343C169.831 7.57519 170.212 8.05439 170.467 8.68105C170.739 9.28928 170.885 10.0173 170.903 10.8651V15.7862H178.401V11.3904C178.383 9.04967 177.901 7.03147 176.956 5.33581C176.029 3.62171 174.748 2.30389 173.112 1.38233C171.476 0.460778 169.576 0 167.413 0C165.159 0 163.187 0.49764 161.496 1.49292C159.806 2.46977 158.488 3.84289 157.543 5.61227C156.616 7.36323 156.152 9.39987 156.152 11.7222V29.2778C156.152 31.6001 156.616 33.646 157.543 35.4154C158.488 37.1663 159.797 38.5394 161.469 39.5347C163.159 40.5116 165.132 41 167.386 41Z" fill="#D9D9D9"/>
<path d="M183.064 40.4471H200.868V33.9225H190.78V23.3061H200.323V17.1962H190.78V7.07755H200.868V0.552933H183.064V40.4471Z" fill="#D9D9D9"/>
<path d="M205.585 40.4471H213.302V0.552933H205.585V40.4471Z" fill="#D9D9D9"/>
<path d="M218.455 40.4471H226.171V25.0755H227.78C227.907 25.0755 228.025 25.0755 228.134 25.0755C228.262 25.0755 228.389 25.0755 228.516 25.0755L232.497 40.4471H240.595L235.796 23.6932C237.05 23.1034 238.041 22.1726 238.768 20.9009C239.513 19.6107 239.886 18.0256 239.886 16.1457V9.92515C239.886 7.91616 239.531 6.2205 238.823 4.83817C238.114 3.4374 237.059 2.37761 235.66 1.6588C234.278 0.921555 232.579 0.552933 230.561 0.552933H218.455V40.4471ZM226.171 19.4356V6.66285H228.761C229.816 6.66285 230.625 6.93931 231.188 7.49225C231.752 8.02675 232.033 8.8285 232.033 9.89751V16.1733C232.033 17.2607 231.752 18.0809 231.188 18.6339C230.625 19.1684 229.816 19.4356 228.761 19.4356H226.171Z" fill="#D9D9D9"/>
<path d="M255.836 41C258.109 41 260.108 40.5208 261.835 39.5624C263.58 38.5855 264.943 37.2124 265.925 35.443C266.906 33.6552 267.397 31.5633 267.397 29.1672V11.8328C267.397 9.43673 266.906 7.35401 265.925 5.58463C264.943 3.79681 263.58 2.42369 261.835 1.46527C260.108 0.488424 258.109 0 255.836 0C253.564 0 251.556 0.488424 249.811 1.46527C248.084 2.42369 246.73 3.78759 245.748 5.55698C244.767 7.32637 244.276 9.4183 244.276 11.8328V29.1672C244.276 31.5633 244.767 33.6552 245.748 35.443C246.73 37.2124 248.084 38.5855 249.811 39.5624C251.556 40.5208 253.564 41 255.836 41ZM255.836 34.3095C255.073 34.3095 254.41 34.1252 253.846 33.7566C253.301 33.3695 252.883 32.8442 252.592 32.1807C252.301 31.5172 252.156 30.7154 252.156 29.7755V11.1969C252.156 10.2753 252.301 9.48281 252.592 8.81929C252.883 8.13733 253.301 7.61205 253.846 7.24343C254.41 6.8748 255.073 6.69049 255.836 6.69049C256.6 6.69049 257.254 6.8748 257.8 7.24343C258.363 7.61205 258.79 8.13733 259.081 8.81929C259.372 9.48281 259.517 10.2753 259.517 11.1969V29.7755C259.517 30.7154 259.363 31.5172 259.054 32.1807C258.763 32.8442 258.345 33.3695 257.8 33.7566C257.254 34.1252 256.6 34.3095 255.836 34.3095Z" fill="#D9D9D9"/>
<path d="M282.203 41C284.438 41 286.365 40.5761 287.983 39.7283C289.601 38.862 290.837 37.6455 291.691 36.0789C292.564 34.4938 293 32.6323 293 30.4943V29.5266C293 27.831 292.755 26.3381 292.264 25.0479C291.791 23.7393 291.028 22.5412 289.973 21.4538C288.919 20.3664 287.538 19.2789 285.829 18.1915L283.375 16.6156C281.939 15.6388 280.912 14.708 280.294 13.8233C279.694 12.9386 279.394 11.8696 279.394 10.6163V9.64869C279.394 9.0036 279.503 8.44145 279.721 7.96224C279.958 7.48303 280.294 7.11441 280.73 6.85637C281.167 6.57991 281.694 6.44167 282.312 6.44167C282.93 6.44167 283.448 6.57991 283.866 6.85637C284.302 7.13284 284.638 7.55675 284.875 8.12812C285.129 8.68105 285.275 9.363 285.311 10.174L285.338 12.5516H292.618L292.591 10.3951C292.555 8.294 292.137 6.46932 291.337 4.92111C290.555 3.35446 289.41 2.14722 287.901 1.29939C286.393 0.433131 284.52 0 282.284 0C280.121 0 278.249 0.433131 276.668 1.29939C275.086 2.14722 273.859 3.34525 272.987 4.89346C272.114 6.42324 271.678 8.22027 271.678 10.2846V11.1416C271.678 13.7404 272.26 15.906 273.423 17.6386C274.586 19.3527 276.259 20.8917 278.44 22.2556L280.894 23.8314C282.566 24.9373 283.711 25.9418 284.329 26.8449C284.966 27.748 285.284 28.8723 285.284 30.2178V31.2684C285.284 31.9503 285.156 32.5401 284.902 33.0378C284.666 33.517 284.311 33.8948 283.839 34.1713C283.366 34.4293 282.803 34.5583 282.148 34.5583C281.476 34.5583 280.885 34.4201 280.376 34.1436C279.885 33.8487 279.494 33.4248 279.203 32.8719C278.931 32.3189 278.767 31.6462 278.713 30.8537V28.4484H271.351L271.378 30.5496C271.433 32.706 271.878 34.5675 272.714 36.1342C273.568 37.6824 274.786 38.8804 276.368 39.7283C277.967 40.5761 279.912 41 282.203 41Z" fill="#D9D9D9"/>
</svg>
