<svg width="50" height="50" viewBox="0 0 50 50" fill="none" xmlns="http://www.w3.org/2000/svg">
<circle cx="25" cy="25" r="25" fill="#151515"/>
<path d="M35.633 28.0232L29.4028 24.5L35.633 20.9768C35.9841 20.7782 36.1041 20.3389 35.9016 19.9948L34.434 17.5048C34.2314 17.1611 33.7827 17.043 33.4316 17.2415L27.2014 20.7647V13.7187C27.2014 13.3216 26.8728 13 26.4676 13H23.5324C23.1272 13 22.7986 13.3216 22.7986 13.7187V20.7652L16.5684 17.242C16.2173 17.0434 15.7686 17.1616 15.566 17.5052L14.0984 19.9948C13.8959 20.3384 14.0159 20.7782 14.367 20.9768L20.5972 24.5L14.367 28.0232C14.0159 28.2218 13.8959 28.6616 14.0984 29.0052L15.566 31.4952C15.7686 31.8389 16.2173 31.9566 16.5684 31.7585L22.7986 28.2353V35.2812C22.7986 35.6784 23.1272 36 23.5324 36H26.4676C26.8728 36 27.2014 35.6784 27.2014 35.2812V28.2348L33.4316 31.758C33.7827 31.9566 34.2314 31.8389 34.434 31.4948L35.9016 29.0048C36.1041 28.6611 35.9841 28.2218 35.633 28.0232Z" fill="url(#paint0_linear_72_54)"/>
<defs>
<linearGradient id="paint0_linear_72_54" x1="4.5" y1="5.5" x2="36" y2="39" gradientUnits="userSpaceOnUse">
<stop stop-color="#F5D9D1"/>
<stop offset="1" stop-color="#BDC1FA"/>
</linearGradient>
</defs>
</svg>
