<svg width="50" height="50" viewBox="0 0 50 50" fill="none" xmlns="http://www.w3.org/2000/svg">
<circle cx="25" cy="25" r="25" fill="#151515"/>
<path d="M33.3507 19.4915C32.4443 19.1599 31.4863 18.9936 30.5217 19.0002C27.4021 19.0002 25.199 20.578 25.1834 22.8429C25.1639 24.5068 26.749 25.4445 27.9481 26.0004C29.1783 26.572 29.5897 26.9322 29.5858 27.4431C29.578 28.2203 28.6032 28.5726 27.6965 28.5726C26.4507 28.5726 25.7702 28.3984 24.7232 27.9619L24.3352 27.7798L23.8927 30.3873C24.6511 30.7044 26.0178 30.9765 27.4294 31C30.7459 31 32.914 29.432 32.9393 27.0222C32.9666 25.6931 32.1087 24.6888 30.3033 23.8588C29.2056 23.3205 28.5252 22.9603 28.5252 22.4142C28.5252 21.9306 29.1081 21.4139 30.3267 21.4139C31.1377 21.3942 31.9437 21.5469 32.6917 21.8621L32.9842 21.9933L33.4267 19.4739L33.3507 19.4915ZM41.4459 19.2116H39.0087C38.2503 19.2116 37.6791 19.4211 37.3476 20.1767L32.6605 30.8375H35.977L36.6399 29.0894L40.6874 29.0933C40.783 29.5025 41.0754 30.8375 41.0754 30.8375H44L41.4459 19.2116ZM20.6971 19.1137H23.8576L21.8806 30.7455H18.724L20.6971 19.1098V19.1137ZM12.674 25.5247L13.0016 27.1397L16.0899 19.2116H19.4376L14.4639 30.8219H11.124L8.39444 20.991C8.35023 20.8289 8.24641 20.6897 8.10393 20.6015C7.12011 20.0912 6.07769 19.704 5 19.4485L5.04289 19.2038H10.1297C10.8199 19.2312 11.3755 19.4485 11.5608 20.1884L12.6721 25.5306L12.674 25.5247ZM37.5465 26.711L38.806 23.4575C38.7904 23.4928 39.0653 22.7861 39.2252 22.3496L39.4416 23.3538L40.1727 26.709H37.5445L37.5465 26.711Z" fill="url(#paint0_linear_72_56)"/>
<defs>
<linearGradient id="paint0_linear_72_56" x1="12.4681" y1="10" x2="39.5584" y2="39.556" gradientUnits="userSpaceOnUse">
<stop stop-color="#F5D9D1"/>
<stop offset="1" stop-color="#BDC1FA"/>
</linearGradient>
</defs>
</svg>
