<svg width="50" height="50" viewBox="0 0 50 50" fill="none" xmlns="http://www.w3.org/2000/svg">
<circle cx="25" cy="25" r="25" fill="#151515"/>
<path d="M20.7028 24.7995C20.7028 23.6879 20.5263 22.6283 20.1733 21.6206C19.8202 20.613 19.3149 19.7076 18.6573 18.9043C18.4842 18.6963 18.3025 18.569 18.1122 18.5224C17.9218 18.4758 17.7453 18.4866 17.5826 18.5547C17.4199 18.6228 17.285 18.7304 17.1777 18.8774C17.0704 19.0245 17.0115 19.1894 17.0011 19.3723C16.9908 19.5552 17.0513 19.7327 17.1828 19.9048C17.8059 20.7224 18.2506 21.5059 18.5171 22.2553C18.7836 23.0048 18.9169 23.8528 18.9169 24.7995C18.9169 25.7462 18.7836 26.5942 18.5171 27.3437C18.2506 28.0931 17.8059 28.8766 17.1828 29.6942C17.0582 29.8663 17.0011 30.0421 17.0115 30.2213C17.0219 30.4006 17.079 30.5637 17.1828 30.7107C17.2867 30.8578 17.4217 30.9654 17.5878 31.0335C17.7539 31.1017 17.9305 31.1124 18.1174 31.0658C18.3043 31.0192 18.4842 30.8918 18.6573 30.6839C19.3149 29.8807 19.8202 28.9752 20.1733 27.9676C20.5263 26.9599 20.7028 25.9039 20.7028 24.7995Z" fill="url(#paint0_linear_72_55)"/>
<path d="M26.3411 24.7995C26.3411 23.107 26.0936 21.4861 25.5987 19.937C25.1037 18.388 24.3924 16.968 23.4649 15.677C23.2987 15.4476 23.117 15.3005 22.9197 15.236C22.7224 15.1714 22.5355 15.1696 22.359 15.2306C22.1825 15.2916 22.0371 15.3956 21.9229 15.5426C21.8087 15.6896 21.7499 15.8635 21.7464 16.0643C21.7429 16.2651 21.8173 16.4731 21.9696 16.6883C22.8142 17.8357 23.4579 19.0998 23.901 20.4803C24.344 21.8609 24.5655 23.3006 24.5655 24.7995C24.5655 26.2983 24.344 27.7363 23.901 29.1132C23.4579 30.4902 22.8142 31.756 21.9696 32.9107C21.8173 33.1187 21.7429 33.3231 21.7464 33.5239C21.7499 33.7247 21.8087 33.9004 21.9229 34.0511C22.0371 34.2016 22.1825 34.3074 22.359 34.3684C22.5355 34.4294 22.7224 34.4276 22.9197 34.363C23.117 34.2985 23.2987 34.1479 23.4649 33.9112C24.3924 32.6275 25.1037 31.2093 25.5987 29.6565C26.0936 28.1038 26.3411 26.4848 26.3411 24.7995Z" fill="url(#paint1_linear_72_55)"/>
<path d="M32 24.7995C32 22.526 31.6695 20.3476 31.0084 18.2642C30.3474 16.1809 29.4076 14.2606 28.1893 12.5036C28.044 12.2812 27.8744 12.1378 27.6805 12.0732C27.4867 12.0087 27.2998 12.0033 27.1198 12.0571C26.9398 12.1109 26.791 12.2077 26.6733 12.3476C26.5557 12.4874 26.4934 12.6577 26.4864 12.8586C26.4795 13.0594 26.5591 13.2709 26.7253 13.4932C27.8605 15.1141 28.7258 16.8819 29.3211 18.7968C29.9164 20.7116 30.2141 22.7125 30.2141 24.7995C30.2141 26.8793 29.9164 28.8767 29.3211 30.7915C28.7258 32.7063 27.8605 34.4741 26.7253 36.0949C26.566 36.3173 26.4882 36.5289 26.4916 36.7297C26.4951 36.9304 26.5557 37.1043 26.6733 37.2514C26.791 37.3984 26.9381 37.4988 27.1146 37.5527C27.2912 37.6064 27.4763 37.5992 27.6702 37.5311C27.864 37.463 28.037 37.3178 28.1893 37.0954C29.4076 35.3384 30.3474 33.4181 31.0084 31.3347C31.6695 29.2513 32 27.0729 32 24.7995Z" fill="url(#paint2_linear_72_55)"/>
<defs>
<linearGradient id="paint0_linear_72_55" x1="15.2575" y1="15.4526" x2="28.8362" y2="22.7136" gradientUnits="userSpaceOnUse">
<stop stop-color="#F5D9D1"/>
<stop offset="1" stop-color="#BDC1FA"/>
</linearGradient>
<linearGradient id="paint1_linear_72_55" x1="19.584" y1="10.5453" x2="37.8059" y2="18.4691" gradientUnits="userSpaceOnUse">
<stop stop-color="#F5D9D1"/>
<stop offset="1" stop-color="#BDC1FA"/>
</linearGradient>
<linearGradient id="paint2_linear_72_55" x1="23.8912" y1="5.84891" x2="46.4236" y2="14.6911" gradientUnits="userSpaceOnUse">
<stop stop-color="#F5D9D1"/>
<stop offset="1" stop-color="#BDC1FA"/>
</linearGradient>
</defs>
</svg>
