<svg width="50" height="50" viewBox="0 0 50 50" fill="none" xmlns="http://www.w3.org/2000/svg">
<circle cx="25" cy="25" r="25" fill="#151515"/>
<path d="M17.3969 18.3719C17.1766 18.4234 17.3172 18.4141 17.1344 18.4375C16.3516 18.6062 16.9328 18.7562 17.3969 18.3719ZM31.1641 18.6859C31.2203 18.6484 31.4172 18.4562 30.8031 18.2687C30.8406 18.4609 30.6766 18.4422 30.6766 18.55C31.1312 18.9625 31.3187 19.6797 31.9 19.8297C32.0125 19.3141 31.3844 19.0609 31.1641 18.6859V18.6859ZM16.9797 18.2219C17.05 18.6391 17.3641 17.7812 17.3687 17.4766C17.2469 17.5469 17.125 17.6172 16.9984 17.6734C17.2937 17.8234 17.0359 17.9828 16.7172 18.2219C16.0703 19.0281 17.3219 17.5937 16.9797 18.2219V18.2219ZM25 13C18.3719 13 13 18.3719 13 25C13 31.6234 18.3719 37 25 37C31.6281 37 37 31.6234 37 25C37 18.3719 31.6281 13 25 13ZM25.3187 17.0219L25.375 17.0406C25.15 17.3312 26.5469 18.1797 25.5437 18.25C24.6062 18.5172 25.9375 18.0062 25.2109 18.0953C25.5953 17.5609 24.9062 17.5516 25.3187 17.0219V17.0219ZM19.6281 17.7906C19.2906 17.5094 18.2312 18.175 18.6016 18.0156C19.5203 17.6547 18.6625 18.0531 18.8781 18.4844C18.6812 18.8922 18.8125 18.0812 18.325 18.5641C17.9734 18.6437 17.1109 19.4406 17.2187 19.1969C17.1906 19.5766 16.1922 20.0266 16.0562 20.6594C15.7281 21.5359 15.9766 20.6266 15.9156 20.2844C15.4469 19.6891 14.5938 21.2922 14.8469 21.925C15.2734 21.175 15.2406 21.8453 14.9312 22.1781C15.2453 22.7547 14.6453 23.5047 15.2406 23.9312C15.5031 23.9922 16.0281 23.05 15.7984 24.0297C15.9578 23.1812 16.2391 24.2312 16.6938 23.9969C16.7219 24.4422 16.9984 24.2359 17.0594 24.775C17.8187 24.7187 18.5125 26.0031 17.6078 26.2469C17.7437 26.2094 18.0109 26.4484 18.3203 26.2656C18.8453 26.6828 20.2281 26.7344 20.2656 27.7656C19.3141 28.2203 20.0312 29.4672 19.2062 29.9125C18.2594 29.7719 18.8828 31.0797 18.4844 30.9297C18.6437 31.8719 17.5281 30.8078 17.9594 31.3281C18.7516 31.8156 17.6125 31.7172 17.9687 32.0734C17.5703 31.9891 18.2172 32.8141 18.325 33.1187C18.8969 34.0469 17.8328 32.9125 17.5187 32.6031C17.2187 32.0031 16.5109 30.8547 16.3141 29.9125C16.2016 28.5437 15.1422 27.625 14.8984 26.2891C14.6547 25.5437 15.5687 24.3484 15.0766 23.9312C14.65 23.5984 14.8234 22.4594 14.5703 21.8594C15.2031 19.1172 17.2141 16.8062 19.6281 15.4375C19.3797 15.6203 21.0484 14.9641 20.8562 15.1234C20.8047 15.2406 21.8312 14.6781 22.45 14.5937C22.3844 14.6031 20.8422 15.1562 21.2687 15.0812C20.6078 15.4047 21.2031 15.2219 21.5312 15.0578C20.875 15.5406 20.3687 15.4047 19.6234 15.8312C18.8734 16.0281 19.0281 16.8062 18.4937 17.1953C18.8078 17.2516 19.5953 16.3844 20.0547 16.0797C21.1094 15.5687 19.5203 17.0078 20.5234 16.3891C20.1859 16.7031 20.2562 17.2047 20.05 17.3453C19.9469 17.3172 20.4578 17.5891 19.6281 17.7906ZM21.2687 15.6344C21.1609 15.7797 21.0109 16.0937 20.9219 15.9016C20.8 15.9625 20.7531 16.225 20.5234 16.0141C20.6594 15.9156 20.8 15.6812 20.5328 15.8266C20.6547 15.6953 21.7422 15.325 21.6812 15.1844C21.8734 15.0625 21.8547 15.0016 21.6344 15.0766C21.5219 15.0391 21.9016 14.7203 22.4078 14.6781C22.4781 14.6781 22.5062 14.725 22.3797 14.7109C21.6156 14.9453 21.9437 14.8797 22.4594 14.7109C22.2625 14.8234 22.1266 14.8562 22.0937 14.9078C22.6094 14.7203 22.0656 15.0437 22.1828 15.0203C22.0375 15.0953 22.2062 15.1187 21.925 15.2266C21.9766 15.1844 21.4656 15.5312 21.7703 15.4281C21.475 15.7094 21.3437 15.7141 21.2687 15.6344V15.6344ZM21.7187 16.3047C21.7281 15.8547 22.375 15.5687 22.2953 15.5453C23.0922 15.1703 22.0187 15.5594 22.6469 15.2219C22.8812 15.1984 23.3781 14.4484 24.0672 14.4016C24.8266 14.1719 24.475 14.4156 25.0375 14.2L24.925 14.2937C24.8266 14.3078 24.9484 14.4812 24.5922 14.7437C24.5547 15.1516 23.9125 14.9641 24.2312 15.4C24.025 15.1047 23.7156 15.3906 24.1047 15.4187C23.6875 15.7375 22.7172 15.7937 22.2531 16.3234C21.9531 16.7547 21.6766 16.6187 21.7187 16.3047V16.3047ZM25.0516 17.8047C24.7328 18.5734 24.4234 17.6922 24.9859 17.5516C25.1266 17.6266 25.1828 17.65 25.0516 17.8047ZM23.8516 16.2672C23.7578 15.9203 23.8328 16.1031 24.3906 15.9391C24.775 16.2156 24.0484 16.3984 23.8516 16.2672ZM32.5797 30.025C32.1391 29.2656 33.1141 28.5625 33.4422 27.925C33.4 28.6703 33.3062 29.4062 32.5797 30.025ZM34.2391 21.3484C33.7609 21.3859 33.3297 21.4984 32.8984 21.2266C31.9047 20.1391 33.0812 22.4547 33.4094 21.5078C34.5906 21.9578 33.3906 23.8984 32.6453 23.6969C32.2281 22.7969 31.7125 21.8078 30.8031 21.3672C31.5016 22.1406 31.8484 23.0922 32.5984 23.7906C32.65 24.7656 33.6391 23.4344 33.5781 24.1891C33.6719 25.4875 32.1109 26.2656 32.3828 27.5687C32.9641 28.7547 31.2625 28.9703 31.4547 30.0344C30.7703 30.7984 30.0391 31.8297 28.8109 31.6656C28.8109 31.0187 28.4828 30.4703 28.4078 29.8047C27.7422 28.9609 29.1109 28.0562 28.2625 27.175C27.2828 26.9547 28.4641 25.6047 27.4562 25.7312C26.8516 25.1266 25.9656 25.7125 25.0984 25.7172C24.0109 25.8203 22.8906 24.3812 23.3734 23.3641C22.9891 22.3047 24.5922 21.9953 24.6344 21.0625C25.4031 20.4203 26.4953 20.5 27.5359 20.35C27.4609 21.0953 28.2484 21.1 28.8437 21.3484C29.1766 20.5422 30.2125 21.4797 30.9203 20.9687C31.1641 19.7781 30.2312 20.4953 29.6969 20.1156C29.05 19.1687 31.0797 19.6281 30.8687 19.1312C30.0812 19.1266 30.5266 18.1609 29.9687 18.7C30.4703 18.7891 29.8797 19.1828 29.8937 18.7328C29.1344 18.5125 29.8656 19.5953 29.4812 19.6984C28.8953 19.4547 29.1719 19.975 29.2328 20.0547C28.9797 20.6031 28.6703 19.2484 27.9531 19.2859C27.2406 18.6344 27.6719 19.5812 28.2906 19.7359C28.1594 19.7734 28.3656 20.3125 28.2016 20.0828C27.6906 19.3797 26.7203 18.9109 26.1437 19.7734C26.0828 20.5797 24.4422 20.8094 24.7047 19.8672C24.3203 18.8922 25.8953 19.8391 25.75 19.0609C24.7375 18.3906 26.0266 18.6062 26.3688 17.9781C27.1469 18.0016 26.4016 17.3406 26.7672 17.1484C26.7297 17.8656 27.3625 17.7297 27.8641 17.5937C27.7422 17.1812 28.1641 17.1953 27.9062 16.8531C29.0687 16.3891 27.0203 17.0687 27.4328 16.0516C26.9312 15.7047 27.2219 16.8156 27.4328 16.9328C27.4469 17.275 27.1562 17.6969 26.7578 16.9797C26.1766 17.3594 26.2375 16.5953 26.2 16.675C26.1344 16.3797 26.6406 16.3656 26.6453 15.85C26.6031 15.5219 26.6125 15.3484 26.8469 15.3297C26.8656 15.3766 27.8078 15.3906 28.1406 15.7797C27.2312 15.5969 28.0047 15.9297 28.4125 16.1172C27.9766 15.775 28.5859 16.1172 28.2297 15.7281C28.3703 15.7562 27.8406 15.1937 28.3844 15.6859C28.0891 15.3344 28.9609 15.4375 28.4453 15.175C29.2 15.3859 28.7547 15.1937 28.3094 15.0016C27.0812 14.2703 30.4797 15.9906 29.0922 15.2266C29.9781 15.4187 27.1984 14.5422 28.4641 14.9266C27.9812 14.7156 28.45 14.8328 28.8859 14.9687C28.1031 14.725 26.9313 14.2703 26.9781 14.2516C27.25 14.2703 27.5172 14.3312 27.775 14.4062C28.5766 14.6453 27.5453 14.35 27.7656 14.3547C30.5219 15.0625 32.9359 16.9094 34.4031 19.3234C34.7453 19.6844 35.6781 22.0703 35.1906 21.0109C35.4109 21.8547 35.4437 22.7641 35.5609 23.6266C35.3172 23.3547 35.0453 22.3516 34.8109 21.7937C34.7125 22.0094 34.6 21.4891 34.2391 21.3484Z" fill="url(#paint0_linear_72_56)"/>
<defs>
<linearGradient id="paint0_linear_72_56" x1="8.5" y1="10" x2="41" y2="39" gradientUnits="userSpaceOnUse">
<stop stop-color="#F5D9D1"/>
<stop offset="1" stop-color="#BDC1FA"/>
</linearGradient>
</defs>
</svg>
